<?xml version="1.0" standalone="no"?>
<!DOCTYPE svg PUBLIC "-//W3C//DTD SVG 20010904//EN"
 "http://www.w3.org/TR/2001/REC-SVG-20010904/DTD/svg10.dtd">
<svg version="1.0" xmlns="http://www.w3.org/2000/svg"
 width="1108.000000pt" height="1108.000000pt" viewBox="0 0 1108.000000 1108.000000"
 preserveAspectRatio="xMidYMid meet">
<metadata>
Created by potrace 1.14, written by Peter Selinger 2001-2017
</metadata>
<g transform="translate(0.000000,1108.000000) scale(0.100000,-0.100000)"
fill="#000000" stroke="none">
<path d="M9658 8948 c-3 -7 -33 -13 -79 -15 -41 -1 -102 -4 -136 -6 -47 -2
-63 0 -63 10 0 11 -331 13 -1920 13 l-1920 -1 3 -22 c1 -12 -4 -22 -10 -23 -7
-1 -14 -3 -15 -4 -3 -3 -16 -5 -88 -14 -25 -3 -65 -9 -90 -12 -25 -4 -55 -8
-67 -8 -13 -1 -23 -4 -23 -7 0 -4 -15 -8 -32 -9 -80 -3 -98 -5 -98 -11 0 -3
-6 -6 -12 -6 -37 -1 -155 -16 -177 -23 -14 -4 -40 -7 -58 -6 -17 1 -29 -2 -27
-6 3 -4 -4 -7 -13 -6 -10 0 -38 -3 -63 -7 -25 -4 -61 -8 -82 -8 -20 -1 -34 -6
-31 -11 3 -5 -6 -7 -21 -4 -14 3 -29 2 -32 -3 -2 -4 -12 -5 -21 -2 -11 4 -14
3 -9 -5 4 -7 2 -12 -3 -12 -6 0 -11 -7 -11 -15 0 -8 -4 -15 -8 -15 -5 0 -8
-10 -7 -22 1 -13 -2 -29 -8 -35 -5 -7 -6 -13 -1 -13 5 0 4 -4 -3 -8 -7 -4 -15
-23 -18 -42 -3 -19 -10 -39 -14 -45 -5 -5 -7 -20 -5 -32 2 -13 0 -23 -4 -23
-7 0 -11 -20 -13 -72 0 -10 -4 -18 -9 -18 -5 0 -7 -7 -4 -15 4 -8 2 -21 -4
-28 -6 -6 -12 -25 -15 -42 -3 -16 -10 -42 -16 -57 -6 -16 -8 -28 -5 -28 4 0 1
-6 -5 -13 -6 -8 -8 -17 -4 -20 3 -4 2 -7 -4 -7 -6 0 -9 -14 -7 -31 3 -20 0
-28 -8 -23 -7 4 -8 3 -4 -4 4 -6 0 -26 -7 -44 -8 -18 -13 -41 -11 -51 1 -9 -1
-17 -4 -17 -4 0 -8 -15 -9 -32 -2 -18 -7 -34 -12 -36 -6 -2 -7 -10 -4 -18 3
-8 1 -14 -4 -14 -8 0 -12 -19 -14 -72 0 -10 -3 -18 -7 -18 -4 0 -9 -12 -10
-26 -1 -14 -5 -31 -9 -37 -4 -6 -8 -20 -9 -31 -5 -37 -11 -71 -13 -71 -3 0
-12 -36 -13 -52 -1 -7 -5 -13 -9 -13 -5 0 -6 -7 -3 -15 4 -8 1 -15 -4 -15 -6
0 -9 -10 -7 -22 3 -12 1 -26 -4 -32 -5 -6 -10 -24 -12 -41 -2 -16 -7 -35 -12
-42 -5 -7 -6 -17 -2 -23 3 -5 2 -10 -4 -10 -6 0 -8 -7 -5 -15 4 -8 2 -15 -4
-15 -5 0 -12 -15 -15 -32 -6 -42 -14 -76 -21 -86 -3 -5 -7 -27 -10 -50 -3 -22
-10 -50 -16 -62 -6 -11 -8 -25 -5 -30 3 -6 2 -10 -3 -10 -5 0 -9 -6 -10 -12
-3 -37 -10 -66 -18 -79 -8 -14 -14 -46 -15 -81 0 -10 -4 -20 -9 -23 -5 -3 -7
-12 -3 -20 3 -8 0 -15 -7 -15 -6 0 -9 -4 -5 -9 3 -5 1 -12 -4 -15 -5 -4 -8
-18 -5 -31 2 -14 0 -25 -6 -25 -5 0 -9 -3 -9 -7 4 -23 -3 -33 -21 -33 -14 0
-22 11 -30 40 -6 22 -8 45 -5 50 3 6 2 10 -3 10 -5 0 -9 6 -10 13 0 6 -3 23
-6 37 -3 14 -8 41 -11 60 -6 37 -10 55 -19 105 -32 164 -41 205 -46 205 -3 0
-6 17 -5 38 0 20 -2 42 -5 47 -2 6 -5 13 -6 18 -1 4 -3 8 -4 10 -1 1 -3 13 -4
27 -2 14 -9 50 -16 80 -8 30 -15 63 -16 73 -1 9 -2 18 -3 20 -1 1 -4 18 -7 37
-6 49 -11 75 -14 78 -1 1 -4 11 -5 22 -1 11 -4 21 -5 23 -1 1 -4 11 -5 23 -1
11 -6 38 -10 60 -5 21 -7 45 -6 52 1 6 -2 12 -7 12 -5 0 -9 10 -8 23 1 12 -2
38 -7 57 -5 19 -11 46 -13 60 -3 28 -12 65 -14 65 -1 0 -3 14 -5 30 -4 40 -15
86 -22 98 -3 5 -7 26 -9 46 -1 20 -5 47 -9 61 -3 14 -7 39 -9 56 -1 16 -6 36
-10 42 -4 7 -5 16 -1 21 3 5 1 12 -4 15 -5 4 -10 19 -10 34 0 29 -7 67 -15 80
-3 5 -6 27 -7 50 -2 26 -9 44 -18 48 -9 4 -155 8 -326 9 -170 2 -434 4 -585 6
-152 2 -281 0 -288 -5 -14 -8 -56 -86 -46 -86 3 0 -2 -7 -11 -16 -9 -9 -14
-21 -12 -27 2 -6 -3 -18 -10 -27 -7 -8 -13 -19 -14 -25 -1 -13 -42 -88 -52
-96 -5 -3 -9 -10 -9 -15 -1 -5 -7 -23 -15 -41 -7 -18 -13 -37 -13 -43 0 -5 -4
-10 -10 -10 -5 0 -7 -6 -4 -14 3 -7 -2 -16 -10 -19 -9 -4 -13 -12 -10 -20 2
-7 -5 -24 -16 -37 -11 -13 -19 -29 -16 -36 3 -7 -2 -15 -10 -18 -9 -3 -13 -10
-10 -15 9 -14 -22 -41 -47 -41 -29 0 -51 15 -43 28 3 6 -1 17 -9 25 -8 9 -15
18 -15 20 0 2 -15 38 -34 78 -18 41 -34 77 -34 82 -1 4 -9 21 -17 37 -8 16
-16 33 -16 37 0 5 -9 23 -21 41 -11 17 -16 32 -13 32 4 0 2 6 -4 13 -6 8 -8
17 -4 20 3 4 -2 7 -12 7 -10 0 -15 3 -12 7 4 3 2 12 -4 20 -6 7 -8 13 -4 13 4
0 0 11 -9 25 -9 14 -14 25 -11 25 4 0 -1 10 -9 22 -9 12 -16 30 -16 40 0 10
-8 19 -17 19 -204 13 -1183 16 -1201 3 -8 -5 -16 -23 -18 -40 -3 -30 -11 -69
-14 -69 -3 0 -10 -38 -14 -72 -2 -17 -7 -36 -10 -42 -4 -6 -9 -25 -11 -43 -4
-37 -11 -70 -21 -101 -3 -11 -7 -35 -9 -52 -1 -17 -4 -36 -7 -41 -3 -5 -9 -27
-13 -49 -4 -22 -8 -44 -9 -50 -2 -5 -6 -28 -10 -50 -4 -22 -12 -53 -16 -70 -5
-16 -11 -43 -14 -60 -3 -16 -7 -40 -10 -52 -3 -13 -9 -33 -12 -45 -3 -13 -7
-36 -9 -53 -2 -16 -8 -48 -14 -70 -5 -22 -10 -41 -11 -42 0 -2 0 -4 -1 -5 -6
-21 -21 -108 -23 -133 0 -11 -5 -23 -9 -26 -4 -3 -10 -23 -12 -45 -2 -21 -6
-50 -10 -64 -3 -14 -8 -32 -10 -40 -2 -8 -4 -16 -5 -17 -2 -2 -3 -15 -5 -30
-1 -16 -5 -39 -8 -53 -4 -14 -9 -36 -11 -50 -3 -14 -5 -25 -6 -25 -3 0 -11
-39 -13 -62 -1 -13 -4 -23 -7 -23 -3 0 -6 -15 -8 -32 -4 -56 -6 -68 -12 -68
-3 0 -6 -10 -7 -22 -1 -24 -8 -55 -19 -90 -3 -12 -7 -35 -8 -52 -2 -18 -5 -37
-9 -43 -3 -5 -9 -29 -12 -53 -3 -23 -7 -45 -10 -49 -6 -10 -16 -59 -19 -97 -1
-17 -6 -35 -9 -41 -4 -6 -9 -25 -11 -44 -6 -38 -14 -74 -16 -74 -3 0 -10 -38
-14 -70 -1 -16 -7 -41 -13 -54 -5 -14 -9 -36 -8 -50 1 -14 -3 -29 -9 -33 -15
-10 -23 -10 309 -14 610 -8 896 -9 912 -3 9 3 18 14 19 25 2 10 6 35 8 54 3
19 8 46 11 60 4 14 8 39 10 55 9 70 14 101 21 125 3 14 6 42 7 63 0 20 4 37
10 37 5 0 7 7 4 15 -4 8 -2 17 3 20 4 3 7 21 6 40 -3 34 14 52 36 39 9 -6 25
-41 26 -58 0 -5 4 -12 9 -15 4 -3 19 -26 32 -51 14 -25 29 -48 35 -52 6 -4 7
-8 3 -8 -4 0 6 -24 22 -54 17 -29 27 -57 23 -60 -3 -4 -2 -10 4 -14 12 -7 48
-71 49 -85 0 -4 6 -11 13 -16 8 -5 13 -11 13 -15 -1 -3 10 -28 23 -55 14 -27
23 -50 21 -52 -2 -2 96 -5 218 -6 122 -1 295 -3 383 -4 89 -1 167 1 173 5 6 4
11 16 11 26 0 10 4 20 8 22 14 5 132 227 132 247 0 5 7 14 15 21 9 7 14 19 11
26 -3 7 2 15 10 18 8 3 14 12 14 19 0 8 7 20 15 27 8 7 13 16 10 20 -3 4 2 13
10 20 8 7 13 16 10 20 -3 4 2 13 10 20 8 7 13 16 10 20 -3 4 2 14 11 21 23 19
48 -1 50 -42 2 -30 9 -85 18 -144 2 -11 4 -35 5 -53 0 -18 5 -31 9 -28 4 2 8
-14 9 -37 0 -23 4 -58 7 -77 4 -19 9 -55 12 -80 3 -25 5 -50 6 -56 1 -6 6 -12
12 -13 11 -2 617 -10 979 -13 l207 -1 0 -39 c0 -21 5 -38 10 -38 6 0 10 -6 10
-14 0 -17 22 -26 67 -26 60 0 946 140 990 156 55 21 105 104 127 210 9 42 18
79 21 84 8 13 -15 68 -33 76 -9 5 -37 9 -62 9 l-45 0 1 67 c1 40 7 74 15 84
18 22 -4 34 -45 23 -17 -4 -43 -7 -58 -5 -16 2 -28 -1 -28 -6 0 -6 -15 -8 -34
-6 -19 2 -32 0 -30 -4 3 -4 -5 -8 -18 -8 -13 0 -63 -2 -113 -3 -87 -2 -90 -1
-93 21 -2 12 8 46 22 75 31 67 42 159 26 226 -7 29 -9 67 -6 85 6 30 12 36 54
49 26 8 72 18 102 22 99 12 203 36 241 56 41 21 79 74 79 111 0 13 4 28 9 34
5 5 17 44 26 86 17 77 17 78 -5 108 -19 26 -27 30 -71 30 l-49 0 0 53 c0 63 9
99 22 91 6 -4 6 1 0 13 -9 16 -19 19 -54 16 -24 -2 -58 -1 -76 2 -33 6 -34 8
-29 43 3 20 9 53 15 72 76 266 84 283 143 312 35 18 295 62 331 56 20 -3 20
-5 21 -1185 l2 -1183 1916 0 1916 0 -1 1229 c0 676 3 1233 7 1237 14 14 18 -5
23 -107 3 -57 7 -138 10 -179 2 -41 6 -109 8 -150 2 -41 5 -75 6 -75 1 0 3
-34 5 -75 5 -90 17 -281 30 -460 3 -47 7 -114 9 -150 3 -36 5 -65 6 -65 1 0 3
-36 5 -80 3 -44 7 -116 10 -160 3 -44 7 -111 10 -150 7 -122 16 -248 20 -305
5 -68 14 -209 21 -315 10 -176 4 -167 92 -159 64 5 107 8 287 19 153 10 231
15 310 20 44 3 112 7 150 10 39 2 70 4 70 5 0 1 34 3 75 6 41 2 109 6 150 9
41 3 111 7 155 10 70 5 150 10 223 14 l22 1 0 1435 0 1435 -709 0 c-532 0
-710 -3 -713 -12z"/>
<path d="M4145 8446 c0 -24 4 -42 8 -39 5 3 8 -1 6 -8 -3 -27 1 -49 10 -49 6
0 13 20 17 45 5 34 2 51 -10 70 -24 36 -31 31 -31 -19z"/>
<path d="M7010 5482 c-2 -193 -4 -242 -11 -242 -5 0 -19 11 -32 24 -14 14 -28
22 -33 18 -4 -4 -4 1 -1 10 4 12 2 15 -8 11 -8 -3 -18 2 -21 11 -3 9 -12 16
-20 16 -8 0 -14 5 -14 10 0 6 -9 10 -20 10 -11 0 -20 5 -20 11 0 5 -4 7 -10 4
-5 -3 -10 -1 -10 5 0 7 -8 9 -21 5 -12 -4 -19 -3 -16 2 3 5 2 15 -4 23 -7 12
-9 12 -9 1 0 -11 -3 -11 -15 -1 -8 6 -19 9 -25 5 -5 -3 -10 -1 -10 5 0 6 -8
10 -17 8 -10 -2 -17 2 -16 9 2 7 -4 10 -12 7 -8 -4 -12 -11 -8 -18 3 -6 -3 -3
-14 7 -11 9 -23 14 -26 10 -4 -3 -7 2 -7 12 0 18 -1 18 -16 -1 -8 -10 -13 -13
-9 -6 3 6 1 12 -5 12 -6 0 -8 5 -4 13 6 9 5 9 -7 0 -18 -15 -48 -11 -60 8 -7
11 -9 10 -9 -6 0 -12 -3 -16 -8 -9 -4 6 -18 10 -32 9 -14 -1 -30 5 -36 13 -9
12 -13 12 -19 2 -6 -9 -4 -11 5 -5 9 6 11 4 5 -5 -6 -10 -11 -9 -22 5 -9 14
-13 15 -13 4 0 -12 -2 -12 -10 1 -8 13 -10 12 -10 -3 0 -15 -2 -16 -14 -5 -8
7 -12 18 -9 23 2 6 -2 2 -10 -8 -9 -10 -18 -14 -21 -8 -7 10 -24 10 -43 -2 -6
-4 -15 -2 -19 4 -4 8 -9 7 -15 -2 -6 -9 -12 -10 -16 -4 -5 6 -14 11 -22 13
-12 3 -12 1 0 -14 13 -16 12 -16 -7 -6 -12 6 -23 9 -26 7 -2 -2 -20 -5 -41 -7
-20 -1 -37 -7 -37 -13 0 -5 -4 -4 -9 4 -6 9 -11 10 -15 2 -4 -6 -12 -11 -17
-11 -6 0 -7 4 -4 10 3 6 -1 7 -9 4 -9 -3 -14 -10 -11 -14 3 -5 -8 -5 -24 0
-24 7 -29 5 -24 -6 3 -8 0 -14 -6 -14 -6 0 -11 6 -11 13 0 7 -4 6 -10 -4 -6
-10 -18 -15 -34 -12 -13 3 -27 0 -31 -7 -5 -8 -10 -8 -21 1 -12 9 -13 9 -9 -3
5 -12 0 -15 -19 -13 -17 2 -31 -4 -41 -18 -8 -12 -15 -16 -15 -9 0 6 -5 12
-11 12 -5 0 -7 -4 -4 -10 3 -5 0 -10 -9 -10 -8 0 -16 -6 -18 -12 -3 -7 -11
-13 -19 -14 -46 -3 -50 -5 -43 -16 5 -8 2 -9 -9 -5 -10 4 -16 2 -14 -6 1 -7
-4 -11 -10 -10 -7 2 -13 -2 -13 -9 0 -6 -3 -8 -7 -5 -3 4 -17 -5 -30 -19 -12
-14 -23 -22 -23 -18 0 4 -9 -3 -20 -16 -12 -14 -25 -20 -36 -16 -14 5 -15 4
-5 -8 8 -10 9 -16 1 -21 -5 -3 -10 -4 -10 -1 0 3 -10 -4 -22 -16 -13 -13 -23
-26 -23 -29 0 -12 -33 -38 -40 -31 -4 4 -6 0 -3 -8 5 -16 -22 -51 -34 -44 -4
3 -5 -2 -2 -10 4 -9 -1 -18 -10 -22 -9 -3 -13 -10 -10 -15 3 -5 0 -9 -6 -9 -7
0 -10 -7 -6 -15 3 -8 0 -14 -7 -12 -7 1 -11 -8 -11 -21 1 -12 -1 -20 -4 -17
-7 7 -32 -15 -32 -29 0 -6 5 -4 10 4 5 8 10 10 10 4 0 -6 -7 -17 -15 -24 -8
-7 -15 -19 -15 -27 0 -9 -5 -11 -12 -7 -8 5 -7 0 2 -11 12 -15 12 -17 1 -10
-11 6 -13 4 -8 -9 6 -14 3 -17 -9 -12 -14 5 -15 4 -4 -9 11 -13 7 -19 -11 -17
-4 1 -5 -8 -2 -18 3 -13 0 -20 -8 -20 -11 0 -11 -2 1 -10 12 -8 12 -10 1 -10
-8 0 -12 -3 -8 -6 8 -8 -13 -64 -25 -64 -6 0 -4 -8 3 -17 12 -15 12 -16 -3
-10 -10 3 -18 2 -18 -3 0 -6 4 -10 9 -10 4 0 6 -11 3 -25 -2 -14 -8 -22 -13
-19 -5 3 -6 -2 -3 -10 4 -10 1 -16 -7 -16 -11 0 -11 -2 1 -10 12 -7 12 -12 2
-22 -15 -15 -16 -32 0 -22 7 4 8 3 4 -5 -4 -6 -11 -9 -15 -7 -4 3 -5 -9 -3
-26 4 -28 3 -30 -19 -24 l-24 7 23 -14 c21 -12 22 -15 8 -26 -12 -10 -13 -17
-4 -34 8 -16 8 -22 0 -25 -9 -3 -9 -9 0 -25 10 -19 9 -20 -4 -10 -12 10 -15
10 -15 -2 0 -8 3 -15 7 -15 3 0 6 -9 6 -20 0 -11 -5 -19 -11 -16 -6 2 -11 -4
-11 -14 0 -11 6 -16 16 -13 10 3 11 2 3 -4 -6 -4 -10 -27 -9 -50 1 -23 -1 -40
-5 -37 -4 2 -10 0 -14 -6 -3 -5 2 -10 12 -11 10 0 13 -3 7 -5 -6 -3 -9 -16 -6
-29 5 -28 -14 -58 -32 -48 -6 3 -7 2 -3 -2 11 -13 38 -15 31 -3 -5 7 -2 8 5 4
9 -6 9 -12 -3 -25 -10 -11 -13 -27 -10 -42 3 -13 6 -32 6 -42 -1 -11 4 -15 11
-11 7 4 9 4 5 -1 -4 -4 -2 -15 5 -24 11 -14 10 -14 -5 -2 -21 15 -24 2 -5 -18
10 -11 9 -13 -5 -8 -12 4 -15 2 -11 -8 3 -8 9 -12 14 -9 5 3 5 -5 0 -18 -10
-28 -4 -50 12 -42 7 3 3 -3 -8 -13 -22 -19 -25 -36 -11 -50 5 -5 6 -3 2 5 -4
7 -1 12 8 12 17 0 17 -20 1 -33 -6 -5 -4 -12 5 -20 9 -6 15 -23 14 -37 -1 -14
3 -31 10 -39 9 -12 7 -13 -8 -7 -19 6 -19 6 -4 -11 9 -10 17 -21 17 -25 1 -5
1 -9 2 -10 6 -21 5 -37 -1 -33 -5 3 -12 0 -16 -6 -4 -7 -3 -9 2 -6 6 3 16 2
24 -4 13 -7 12 -9 -2 -9 -9 0 -19 -4 -23 -9 -3 -6 4 -8 16 -6 18 4 19 2 7 -12
-8 -10 -8 -14 -1 -10 6 4 15 2 19 -4 4 -7 3 -9 -4 -5 -6 3 -13 2 -17 -4 -3 -5
0 -10 8 -10 19 0 31 -30 17 -44 -8 -8 -9 -6 -5 5 4 10 2 19 -3 23 -5 3 -8 -5
-7 -17 1 -12 9 -23 18 -25 10 -2 15 -8 12 -13 -4 -5 -1 -9 6 -9 7 0 9 -3 6 -6
-4 -4 -13 -1 -21 5 -11 10 -14 9 -12 -2 1 -8 7 -21 13 -29 13 -15 12 -35 -1
-58 -7 -12 -6 -13 4 -3 18 17 22 44 8 60 -7 9 -7 13 0 13 12 0 24 -29 16 -41
-3 -5 -1 -9 5 -9 6 0 8 -6 5 -14 -3 -7 2 -21 11 -30 21 -21 7 -21 -16 0 -11
10 -19 12 -24 4 -4 -6 -1 -9 7 -8 7 2 12 -3 10 -10 -1 -8 2 -11 8 -7 5 3 10 1
10 -5 0 -6 4 -9 9 -6 5 3 14 0 20 -7 8 -10 7 -14 -4 -14 -8 0 -11 5 -8 11 3 6
2 7 -2 3 -15 -13 -14 -36 0 -30 8 2 22 0 32 -6 12 -7 13 -10 4 -11 -11 0 -11
-3 0 -17 8 -9 9 -14 3 -10 -7 4 -14 0 -18 -8 -3 -10 5 -20 24 -30 17 -9 30
-18 30 -21 0 -3 -4 -2 -10 1 -5 3 -10 1 -10 -4 0 -6 5 -11 11 -11 7 0 17 -8
24 -17 10 -14 9 -20 -9 -36 -11 -10 -15 -16 -8 -12 7 4 20 1 28 -6 13 -10 17
-10 23 0 6 10 10 9 14 -3 3 -8 2 -18 -3 -21 -12 -7 -13 -26 -2 -24 24 4 33 -3
27 -20 -3 -11 0 -23 6 -27 7 -4 9 -3 5 4 -3 6 -2 14 4 17 6 4 9 1 8 -7 -2 -7
3 -12 11 -10 12 3 12 1 1 -15 -22 -28 -24 -29 -18 -13 4 10 -2 15 -19 16 l-25
2 24 -16 c12 -9 32 -17 44 -17 11 0 28 -6 36 -12 8 -7 19 -9 23 -5 5 4 4 0 -1
-8 -13 -22 -15 -50 -4 -50 6 0 10 6 10 13 0 8 4 7 10 -3 5 -8 9 -22 9 -30 0
-10 -3 -8 -9 5 -8 19 -9 19 -9 -2 -1 -29 13 -29 32 -2 8 11 18 16 21 11 3 -6
-1 -13 -10 -16 -8 -3 -12 -11 -8 -17 4 -8 9 -7 15 2 7 11 9 11 9 1 0 -7 5 -10
10 -7 6 4 9 1 8 -7 -2 -7 5 -12 14 -12 11 1 15 -5 13 -18 -3 -14 0 -18 10 -14
8 3 17 1 20 -5 4 -5 11 -6 17 -3 6 4 8 2 5 -3 -4 -6 0 -16 8 -23 19 -16 19
-26 -1 -34 -13 -5 -15 -2 -11 14 3 13 1 18 -5 13 -7 -3 -8 -1 -4 6 4 6 4 10
-1 9 -4 -1 -17 3 -29 9 -13 8 -25 8 -35 2 -12 -8 -12 -10 1 -8 8 1 22 1 30 0
13 -1 13 -3 0 -12 -13 -9 -12 -10 3 -5 13 4 20 -2 27 -20 10 -25 11 -25 35
-10 19 12 27 13 37 3 7 -6 20 -13 28 -15 8 -2 22 -12 32 -22 19 -23 30 -26 22
-6 -3 8 -1 17 5 21 7 4 8 0 4 -11 -5 -13 -3 -15 8 -9 12 8 12 6 0 -8 -17 -21
-38 -22 -44 -2 -4 11 -4 10 -3 -2 2 -18 5 -18 72 -9 11 1 27 6 35 11 11 6 12
5 1 -6 -10 -11 -8 -17 10 -32 13 -10 17 -16 11 -12 -7 3 -13 2 -13 -3 0 -6 7
-13 16 -16 9 -4 13 -2 8 5 -4 7 -1 10 7 7 8 -3 20 4 27 16 12 20 13 20 7 -4
-6 -24 -5 -24 9 -6 9 11 16 14 16 7 0 -7 4 -9 10 -6 7 4 7 -2 0 -19 -5 -15 -6
-25 0 -23 5 1 15 -7 23 -17 11 -15 16 -16 22 -6 5 8 4 11 -2 7 -6 -4 -13 0
-17 8 -7 19 -2 19 34 0 26 -14 29 -14 24 0 -3 8 -11 12 -17 8 -6 -3 -7 -1 -3
5 4 7 2 10 -6 7 -18 -7 -42 32 -25 41 6 4 9 4 5 -1 -11 -12 11 -35 26 -29 8 3
16 -2 19 -10 4 -9 12 -16 18 -16 8 0 7 6 -2 18 -13 15 -12 16 3 4 13 -10 17
-10 21 0 3 7 4 3 4 -9 -1 -12 -4 -20 -8 -17 -4 2 -10 1 -13 -4 -2 -4 4 -9 15
-9 13 -1 19 5 19 18 0 10 4 19 10 19 5 0 7 -6 4 -14 -3 -8 1 -18 8 -22 13 -9
18 -10 39 -13 5 0 7 -6 3 -13 -4 -7 -3 -8 5 -4 8 5 9 12 2 19 -10 13 12 41 23
29 4 -3 13 -7 21 -9 34 -7 41 -9 51 -15 14 -9 39 -5 56 10 8 6 18 9 22 5 9 -9
36 -13 33 -5 -1 4 1 8 6 9 4 2 20 9 36 17 22 12 31 12 41 3 9 -9 9 -6 -1 10
-9 16 -16 19 -21 10 -5 -7 -8 -8 -8 -1 0 21 14 24 32 7 25 -22 48 -26 41 -6
-4 11 -8 11 -13 3 -5 -8 -10 -8 -14 -2 -8 14 19 23 32 10 6 -6 12 -6 17 3 5 8
4 10 -3 5 -7 -4 -12 -2 -12 3 0 6 13 11 29 11 17 0 33 5 37 12 4 6 3 8 -3 5
-6 -4 -16 0 -23 8 -8 9 -8 15 -2 15 6 0 13 -6 15 -12 4 -9 6 -9 6 2 1 10 6 7
17 -8 15 -21 17 -22 33 -8 10 9 21 13 24 10 4 -4 9 1 13 10 3 9 11 13 18 9 6
-4 5 0 -2 9 -11 14 -10 18 7 27 16 9 22 8 30 -6 8 -14 9 -10 7 19 -2 20 -7 42
-11 50 -3 7 1 4 9 -6 9 -11 16 -16 16 -12 0 5 7 3 15 -4 13 -11 14 -10 9 5 -5
12 -4 16 3 12 6 -4 16 0 23 8 7 8 20 15 29 15 14 0 14 2 1 10 -9 6 -17 5 -22
-3 -5 -7 -7 -1 -5 13 2 14 10 25 18 25 8 0 19 9 25 20 6 11 16 19 24 17 8 -2
10 3 6 13 -3 9 -2 13 4 10 10 -6 33 29 24 38 -3 3 2 4 13 3 20 -3 20 -6 22
-118 l1 -78 520 0 520 0 0 215 c0 165 -3 215 -12 216 -7 0 -62 0 -123 0 -126
-2 -166 12 -196 68 -16 30 -17 79 -13 684 4 748 9 975 18 984 12 12 24 -11
106 -202 45 -104 90 -208 100 -230 10 -22 32 -71 49 -108 17 -38 31 -70 31
-72 0 -3 11 -28 24 -57 38 -85 60 -134 131 -298 37 -85 85 -195 107 -245 22
-49 53 -119 68 -155 16 -36 56 -128 90 -205 67 -151 71 -162 120 -275 18 -41
42 -95 53 -120 11 -25 35 -79 53 -120 l33 -75 228 -3 229 -2 2 30 c1 16 7 41
12 55 6 15 10 82 10 151 0 110 7 143 24 116 2 -4 19 -9 37 -10 18 -2 37 -8 41
-15 4 -7 8 -8 8 -3 0 5 7 3 15 -4 8 -7 15 -9 15 -5 0 4 7 1 16 -6 9 -7 44 -14
83 -15 36 -1 75 -5 86 -9 11 -4 27 -9 35 -13 26 -9 315 -8 321 1 4 5 20 9 35
9 16 0 34 3 39 7 6 4 42 7 80 6 39 -1 75 3 82 8 7 5 17 6 23 2 5 -3 10 1 10
10 0 10 7 15 18 13 9 -1 23 1 31 6 7 5 28 9 45 10 18 0 40 9 49 18 9 9 31 20
49 23 18 4 44 16 57 27 17 13 27 15 31 7 5 -7 10 -5 14 7 3 9 9 14 13 10 3 -3
13 3 20 14 8 11 19 18 24 15 5 -4 9 -1 9 4 0 6 7 11 15 11 8 0 15 5 15 11 0 6
6 9 13 6 7 -3 19 4 25 14 7 10 20 19 30 19 10 0 24 6 30 12 10 10 20 5 47 -24
19 -20 44 -40 55 -43 15 -5 19 -12 15 -26 -5 -14 -3 -17 9 -13 9 3 16 1 16 -5
0 -6 6 -11 14 -11 8 0 16 -7 20 -15 3 -8 11 -15 19 -15 7 0 24 -11 37 -25 12
-13 26 -22 31 -20 4 3 20 -6 35 -20 31 -29 27 -28 114 -29 55 -1 69 3 93 23
l27 24 0 978 c0 588 -4 988 -9 1002 -6 14 -20 28 -32 32 -11 4 -32 16 -45 28
-13 11 -32 22 -41 23 -9 2 -19 7 -22 12 -3 5 -24 15 -46 23 -22 7 -45 19 -52
27 -6 7 -14 13 -17 13 -3 -1 -9 -1 -13 0 -5 1 -18 0 -30 -1 -13 -1 -23 4 -23
10 0 6 -8 10 -17 8 -10 -1 -29 5 -43 14 -16 11 -45 17 -77 17 -28 -1 -58 3
-65 7 -7 5 -17 9 -23 9 -5 1 -30 7 -55 14 -26 8 -97 15 -170 16 -69 0 -131 4
-138 9 -6 4 -12 3 -12 -1 0 -5 -83 -8 -185 -8 -102 0 -185 -3 -185 -7 0 -5 -9
-8 -21 -8 -11 0 -18 -4 -15 -8 3 -5 -9 -9 -27 -10 -18 -1 -54 -4 -82 -7 -27
-4 -60 -7 -72 -8 -13 0 -23 -5 -23 -9 0 -4 -7 -8 -15 -8 -8 0 -15 -4 -15 -8 0
-5 -18 -8 -40 -6 -22 1 -40 -2 -40 -7 0 -5 -7 -9 -15 -9 -13 0 -15 28 -15 194
0 193 0 194 -22 199 -13 3 -231 6 -486 7 -409 0 -463 -1 -468 -15 -10 -26 -10
-409 -1 -422 7 -9 43 -13 116 -14 122 -1 155 -13 183 -70 15 -30 18 -81 24
-374 13 -737 12 -869 -1 -895 -7 -14 -11 -42 -10 -64 3 -33 2 -36 -9 -20 -7
11 -25 48 -40 84 -16 36 -43 98 -62 138 -19 40 -34 76 -34 79 0 7 -54 123 -76
166 -8 15 -12 27 -9 27 4 0 -4 15 -17 33 -13 17 -22 32 -20 32 6 0 -11 42 -75
185 -13 30 -30 66 -38 80 -7 14 -15 34 -17 45 -1 11 -5 22 -8 25 -3 3 -12 21
-21 40 -8 19 -23 51 -32 70 -87 192 -117 259 -122 283 -4 15 -11 27 -16 27 -5
0 -9 5 -9 12 0 6 -9 32 -21 57 -12 25 -31 69 -44 96 -13 28 -31 68 -41 90 -11
22 -19 42 -20 45 -1 8 -19 48 -52 120 -17 36 -37 82 -46 103 -14 34 -18 37
-58 38 -24 0 -222 2 -440 4 l-398 4 0 -67z m-1196 -90 c3 -5 -1 -9 -9 -9 -8 0
-12 4 -9 9 3 4 7 8 9 8 2 0 6 -4 9 -8z m411 -240 c-3 -3 -11 0 -18 7 -9 10 -8
11 6 5 10 -3 15 -9 12 -12z m40 8 c-3 -5 -12 -10 -18 -10 -7 0 -6 4 3 10 19
12 23 12 15 0z m-45 -40 c0 -6 4 -10 10 -10 5 0 7 7 4 15 -4 11 -2 13 9 9 8
-3 18 -1 22 5 8 14 25 14 25 0 0 -5 -5 -7 -12 -3 -7 4 -8 3 -4 -5 4 -6 4 -11
-1 -10 -17 3 -24 -1 -18 -12 5 -7 13 -5 25 6 12 11 20 13 25 6 3 -6 1 -11 -4
-11 -6 0 -11 -4 -11 -8 0 -5 7 -9 15 -9 8 0 11 5 8 10 -3 5 0 7 8 5 8 -3 13
-12 11 -19 -3 -11 -1 -11 9 -2 10 10 17 9 32 -5 19 -17 19 -16 6 6 -8 12 -20
20 -27 17 -8 -3 -10 0 -6 7 4 7 3 8 -4 4 -7 -4 -12 -2 -12 3 0 6 -5 10 -11 9
-6 -2 -14 4 -16 12 -4 13 -3 13 6 0 6 -8 11 -12 11 -7 0 13 58 -22 76 -45 11
-15 14 -17 10 -5 -17 47 -15 48 9 4 14 -26 32 -50 40 -54 8 -3 13 -8 10 -13
-2 -4 7 -6 21 -4 18 2 28 -4 36 -22 6 -13 16 -20 22 -17 6 4 5 -1 -3 -10 -9
-11 -10 -17 -2 -17 6 0 11 -4 11 -10 0 -5 -7 -7 -16 -3 -8 3 -13 11 -11 17 6
15 -14 50 -30 53 -6 1 -13 -4 -16 -11 -4 -10 0 -12 14 -9 16 5 18 1 15 -26 -2
-18 -1 -30 2 -27 13 13 40 -15 37 -39 -1 -14 0 -23 3 -20 7 6 32 -15 32 -27 0
-5 -4 -7 -9 -3 -5 3 -12 2 -15 -3 -8 -13 28 -11 36 2 5 6 5 -4 2 -21 -4 -22
-3 -33 5 -33 11 0 9 -37 -4 -62 -4 -7 0 -5 8 5 19 23 22 22 22 -7 0 -13 -3
-22 -7 -19 -5 2 -8 -1 -8 -6 0 -6 5 -11 12 -11 6 0 8 -3 5 -7 -4 -3 -1 -13 6
-21 10 -13 8 -14 -12 -7 -22 7 -23 7 -4 -12 10 -11 22 -18 27 -15 5 3 5 -1 1
-9 -14 -22 -15 -62 -2 -78 10 -12 9 -13 -1 -7 -10 6 -12 -1 -10 -28 1 -20 7
-36 13 -36 5 0 4 -4 -4 -9 -7 -5 -10 -14 -7 -20 4 -6 1 -11 -7 -11 -10 0 -14
-7 -10 -22 3 -14 1 -18 -4 -12 -4 6 -20 10 -35 10 -19 -1 -28 3 -29 14 0 9 -4
6 -9 -7 -11 -26 -16 -28 -26 -11 -4 7 -3 8 4 4 8 -5 10 -1 5 9 -4 12 -8 13
-13 4 -5 -6 -19 -10 -34 -7 -14 3 -26 1 -26 -5 0 -5 -7 -4 -15 3 -10 9 -15 9
-15 1 0 -18 -30 -12 -31 7 0 13 -2 12 -9 -5 -11 -26 -16 -28 -26 -11 -4 7 -3
8 4 4 8 -5 10 -1 5 9 -4 12 -8 13 -13 4 -5 -6 -19 -10 -34 -7 -14 3 -26 1 -26
-5 0 -5 -7 -4 -15 3 -10 9 -15 9 -15 1 0 -18 -30 -12 -31 7 0 13 -2 12 -9 -5
-11 -26 -16 -28 -26 -11 -4 7 -3 8 4 4 8 -5 10 -1 5 9 -4 12 -8 13 -13 4 -5
-6 -19 -10 -34 -7 -14 3 -26 1 -26 -5 0 -5 -7 -4 -15 3 -10 9 -15 9 -15 1 0
-6 -5 -11 -11 -11 -5 0 -8 4 -5 8 3 5 -1 9 -9 9 -8 0 -12 -4 -9 -9 3 -4 1 -8
-5 -8 -5 0 -11 5 -13 12 -3 8 -8 7 -18 -4 -13 -13 -16 -13 -29 0 -10 10 -16
11 -19 3 -2 -6 -11 -11 -20 -11 -15 0 -15 2 -2 11 12 9 12 10 -3 5 -10 -3 -23
-6 -28 -6 -6 0 -7 -5 -3 -11 3 -6 -5 -4 -19 5 -20 13 -26 14 -30 4 -4 -10 -6
-9 -7 2 -1 8 -3 23 -5 33 -2 11 1 17 9 14 6 -3 12 3 12 14 0 11 -4 19 -9 19
-5 0 -7 8 -4 19 2 10 0 25 -5 34 -7 13 -5 15 7 11 8 -3 15 -1 15 5 0 6 -6 11
-12 11 -7 1 -2 7 11 14 15 8 20 16 12 20 -6 4 -11 2 -11 -4 0 -6 -5 -8 -11 -5
-6 5 -4 12 8 22 10 8 13 12 7 9 -6 -3 -10 8 -10 29 1 19 5 30 11 27 18 -12 32
-10 32 4 0 9 -4 11 -12 4 -8 -7 -11 4 -11 39 0 35 4 47 13 44 7 -3 13 0 13 6
0 6 -4 11 -8 11 -5 0 -9 7 -9 15 0 13 4 12 21 -2 12 -10 16 -11 9 -4 -6 7 -9
20 -6 29 5 11 2 13 -8 7 -12 -7 -12 -5 -1 6 11 12 14 12 22 -1 5 -8 10 -10 10
-4 0 5 -5 15 -12 22 -9 9 -9 12 3 12 9 0 16 7 16 15 0 11 -4 12 -11 5 -5 -5
-15 -10 -20 -10 -6 0 -3 5 7 11 9 6 15 14 12 19 -3 5 0 12 6 16 8 4 9 3 5 -4
-4 -7 -3 -12 1 -12 16 0 34 38 21 46 -7 4 -8 3 -4 -4 4 -7 2 -12 -3 -12 -14 0
-14 17 -1 25 6 4 8 10 5 14 -2 5 10 8 28 8 20 -1 31 4 30 11 -2 7 2 12 7 12 6
0 10 5 10 11 0 5 -4 8 -9 5 -5 -3 -12 1 -15 10 -3 8 -2 12 4 9 9 -6 14 8 11
28 -1 5 3 6 9 2 6 -4 10 -12 9 -18 -3 -24 1 -37 12 -37 8 0 9 4 0 13 -15 18
-5 26 27 22 15 -2 22 -2 15 1 -7 3 -9 13 -6 22 5 14 3 14 -9 -1 -14 -18 -14
-18 -29 0 -13 17 -13 17 5 3 18 -14 18 -13 13 10 -4 14 -4 19 -1 12 4 -8 11
-5 25 10 16 20 20 21 29 8 9 -14 14 -7 11 13 -1 5 3 6 9 2 6 -3 8 -10 6 -14
-3 -4 4 -8 15 -8 10 -1 19 3 19 8 0 6 -4 8 -9 5 -5 -3 -12 1 -15 9 -4 13 -2
14 14 5 11 -6 20 -15 20 -20z m238 -40 c-11 -17 -10 -22 2 -30 8 -5 24 -7 35
-4 16 5 18 4 8 -7 -10 -10 -18 -10 -38 -1 -27 13 -32 31 -13 50 18 18 20 15 6
-8z m832 7 c0 -6 3 -7 7 -4 3 4 13 -3 22 -15 12 -18 14 -53 12 -202 -1 -99 -5
-184 -8 -189 -3 -5 -5 -28 -5 -50 0 -38 -1 -40 -9 -14 -4 16 -5 35 -2 43 3 8
-1 14 -8 14 -11 0 -11 3 1 10 11 7 11 10 2 10 -7 0 -11 4 -8 9 3 5 -1 14 -9
21 -7 6 -12 17 -9 25 3 7 1 16 -5 20 -6 3 -11 11 -11 17 0 6 7 5 17 -3 15 -13
15 -12 2 9 -8 12 -18 22 -22 22 -5 0 -7 9 -5 20 2 10 -6 26 -17 35 -11 9 -14
14 -7 10 6 -3 12 -1 12 4 0 6 -5 11 -11 11 -6 0 -8 9 -4 21 4 12 3 19 -2 16
-4 -3 -18 13 -30 35 -18 32 -19 37 -5 27 13 -10 12 -7 -3 11 -11 14 -22 27
-25 30 -3 3 -14 16 -25 30 -15 19 -16 22 -2 11 21 -16 23 -8 2 12 -13 14 -5
15 70 15 53 0 85 -4 85 -11z m1970 -12 c-7 -9 -19 -14 -26 -11 -7 3 -18 -2
-25 -10 -6 -8 -14 -12 -16 -10 -3 2 -13 -4 -24 -15 -10 -10 -28 -19 -39 -19
-11 0 -20 -6 -20 -14 0 -8 -7 -16 -15 -20 -12 -4 -15 3 -15 35 0 37 3 41 43
59 23 10 66 19 96 19 47 1 52 -1 41 -14z m-3224 -70 c2 -12 -1 -13 -10 -6 -7
6 -17 7 -22 3 -4 -4 -3 0 4 9 6 9 10 18 8 21 -1 3 2 2 7 -3 6 -5 12 -16 13
-24z m542 -107 c15 -15 16 -31 1 -26 -6 2 -10 7 -9 12 1 5 -4 13 -12 17 -7 5
-8 9 -2 9 5 0 15 -5 22 -12z m3602 -114 c25 -3 52 -13 61 -21 9 -8 27 -15 40
-17 33 -4 60 -17 54 -26 -2 -4 13 -21 34 -38 l38 -30 -1 -134 c-1 -73 -4 -138
-8 -144 -10 -14 -48 -25 -48 -14 0 5 -14 4 -32 -2 -18 -6 -110 -11 -215 -12
-100 -1 -183 -4 -183 -8 0 -5 -13 -8 -30 -8 -16 0 -30 -4 -30 -8 0 -5 -16 -8
-36 -7 -22 1 -38 -3 -41 -11 -4 -10 -10 -11 -24 -3 -14 7 -19 6 -19 -2 0 -8
-4 -8 -13 -1 -7 6 -18 7 -25 3 -7 -4 -33 -6 -58 -4 -30 3 -53 -1 -69 -11 -13
-9 -33 -16 -43 -16 -10 0 -22 -3 -26 -7 -4 -4 -27 -8 -52 -9 -24 -1 -50 -7
-58 -13 -7 -6 -16 -8 -19 -4 -4 3 -7 1 -7 -5 0 -7 -13 -12 -28 -12 -16 0 -32
-3 -36 -7 -3 -4 -16 -8 -28 -10 -12 -2 -29 -10 -37 -17 -9 -7 -24 -12 -33 -11
-9 2 -26 -6 -37 -16 -12 -11 -21 -16 -21 -12 0 4 -4 2 -8 -5 -5 -7 -20 -15
-33 -17 l-24 -4 0 196 0 197 35 -2 c55 -4 114 -14 125 -21 6 -4 48 -7 95 -6
49 0 88 -4 92 -10 5 -7 8 -6 8 1 0 7 17 10 45 8 25 -2 45 1 45 6 0 6 7 10 15
10 8 0 15 5 15 10 0 6 6 9 12 8 7 -2 14 7 16 19 2 12 15 34 30 50 15 16 28 37
30 48 2 11 13 29 26 40 35 30 78 60 87 60 4 0 11 3 15 8 4 4 17 7 29 7 13 0
28 7 35 15 7 9 19 14 26 11 7 -3 16 -1 19 5 4 5 11 7 16 4 5 -4 15 -2 23 2 16
9 182 7 256 -3z m-5030 -384 c0 -5 -5 -10 -11 -10 -5 0 -7 5 -4 10 3 6 8 10
11 10 2 0 4 -4 4 -10z m911 -353 c-20 -25 2 -28 28 -5 l26 23 -23 -26 c-33
-38 -64 -32 -39 9 5 6 11 12 14 12 3 0 0 -6 -6 -13z m-65 -13 c-4 -12 -1 -14
14 -9 13 4 20 2 20 -6 0 -7 -3 -9 -6 -6 -4 3 -15 2 -25 -3 -12 -7 -20 -6 -24
1 -4 6 -14 8 -22 5 -8 -4 -11 -1 -8 5 4 6 13 8 21 5 8 -3 17 1 20 9 4 8 8 15
11 15 3 0 2 -7 -1 -16z m156 -9 c19 3 30 -17 22 -42 -5 -16 -4 -16 6 0 7 10
10 27 7 38 -4 16 -2 17 16 7 12 -6 24 -10 25 -9 2 2 6 0 8 -2 3 -3 0 -8 -7
-13 -7 -4 -10 -3 -6 3 3 5 0 10 -7 10 -8 0 -12 -6 -9 -13 2 -7 13 -12 23 -11
10 1 16 5 14 9 -3 4 5 6 18 4 13 -3 23 -5 23 -6 0 -6 41 -7 49 -2 16 10 30 9
37 -1 8 -12 31 1 24 12 -2 5 -18 7 -35 6 -16 -1 -27 1 -24 6 3 5 10 6 16 3 8
-5 9 -1 5 12 -7 18 -6 18 7 1 8 -10 17 -18 21 -18 4 0 13 8 21 18 13 17 14 17
7 -1 -5 -14 -3 -17 7 -11 9 5 11 4 6 -4 -4 -6 -12 -9 -17 -6 -5 3 -6 -1 -3 -9
3 -9 10 -16 16 -16 5 0 6 5 3 10 -3 6 -2 10 3 10 5 0 14 10 21 23 9 17 10 18
6 2 -4 -11 -7 -22 -8 -25 -1 -3 2 -6 6 -7 4 -1 19 -8 32 -17 15 -10 26 -12 30
-6 4 6 3 9 -2 8 -4 -2 -8 2 -8 7 0 6 2 9 5 8 3 -1 13 -5 23 -8 9 -4 17 -3 17
2 0 5 -6 10 -12 11 -7 0 -26 3 -43 6 -23 5 -27 4 -15 -5 10 -7 11 -9 2 -7 -25
7 -11 23 18 21 23 -1 28 2 24 15 -4 12 -2 11 7 -3 12 -19 12 -19 21 0 7 18 8
18 4 -2 -2 -13 0 -23 6 -23 5 0 7 -4 4 -8 -3 -5 2 -9 10 -9 10 0 11 4 4 11
-17 17 -11 27 9 14 11 -7 17 -17 14 -23 -3 -5 0 -5 7 2 8 7 19 9 29 4 9 -5 26
-7 39 -6 17 1 21 -2 17 -14 -5 -12 -3 -13 6 -4 9 9 8 16 -4 33 -9 13 -17 17
-22 11 -3 -6 -1 -11 6 -11 7 0 9 -3 6 -6 -4 -4 -12 -3 -19 3 -7 5 -23 8 -35 7
-12 0 -20 2 -17 7 2 4 11 6 19 2 11 -4 14 0 9 13 -5 18 -5 18 6 1 12 -19 34
-13 24 6 -3 7 11 -6 32 -27 21 -22 35 -32 31 -23 -8 22 7 22 39 1 19 -13 24
-14 22 -4 -2 8 6 15 17 17 14 3 16 1 7 -5 -9 -6 -3 -9 19 -9 l31 0 -26 14
c-14 7 -26 21 -25 31 0 14 2 14 9 -3 5 -11 9 -15 9 -10 1 7 4 7 9 0 4 -5 17
-16 30 -23 18 -10 26 -10 42 0 17 11 22 10 30 -2 5 -8 10 -10 10 -5 0 6 5 3
10 -5 6 -9 10 -10 10 -3 0 7 -9 17 -20 23 -11 6 -19 18 -19 28 1 16 2 15 6 -1
2 -9 9 -15 14 -12 5 4 9 1 9 -4 0 -6 5 -11 11 -11 6 0 8 7 5 16 -4 10 -2 13 7
7 24 -15 52 -13 66 4 13 17 13 17 7 -1 -5 -14 -3 -17 10 -12 14 5 15 4 4 -9
-14 -17 -35 -21 -24 -4 5 8 1 8 -14 0 -26 -14 -35 -14 -27 -1 3 6 -1 7 -10 4
-18 -7 -18 -7 14 -24 19 -10 22 -10 16 1 -6 9 -3 11 9 6 9 -4 26 -1 37 6 16
10 21 9 29 -3 5 -8 10 -10 10 -5 0 6 5 3 10 -5 6 -9 10 -10 10 -3 0 7 -9 17
-20 23 -11 6 -20 16 -20 23 0 7 4 6 10 -3 5 -8 10 -10 10 -5 0 6 3 5 8 -1 10
-15 76 -49 67 -34 -4 7 1 14 14 17 17 4 19 9 10 27 -10 21 -10 21 7 1 12 -15
17 -17 21 -6 4 10 7 10 13 1 5 -8 11 -7 24 5 9 9 16 11 16 5 0 -6 4 -9 9 -6
12 8 8 -37 -4 -46 -6 -5 -5 -8 3 -8 18 0 6 -770 -13 -817 -17 -41 -64 -65
-118 -61 -36 3 -42 6 -43 25 -1 13 5 28 12 34 8 6 11 16 7 22 -3 6 -1 7 6 3 7
-5 17 6 28 31 9 21 16 41 15 46 -1 4 3 7 8 7 5 0 9 3 8 8 0 4 4 18 10 32 6 14
11 20 11 14 1 -7 9 -15 19 -19 14 -5 15 -4 5 6 -21 21 -16 70 7 76 18 5 30 25
13 22 -22 -4 -25 3 -7 17 10 8 13 12 5 8 -11 -5 -13 -3 -8 9 3 9 2 19 -3 22
-5 3 -7 15 -5 27 3 11 2 18 -1 15 -3 -3 -19 7 -34 23 -15 16 -31 26 -34 23 -3
-4 -6 1 -6 9 0 11 -8 15 -25 13 -14 -1 -25 2 -25 7 0 5 -5 6 -10 3 -6 -4 -7
-12 -4 -18 4 -7 4 -9 0 -6 -10 9 -56 -38 -56 -56 0 -18 -11 -19 -30 -2 -8 6
-6 1 5 -12 11 -14 14 -21 8 -17 -7 4 -13 2 -13 -4 0 -6 -5 -8 -12 -4 -8 5 -7
0 2 -11 9 -11 10 -16 3 -11 -8 4 -13 2 -13 -4 0 -6 -4 -8 -10 -5 -5 3 -10 -1
-10 -9 0 -9 -7 -16 -16 -16 -8 0 -12 -5 -9 -10 3 -6 -1 -13 -9 -16 -9 -3 -13
-11 -9 -17 4 -7 0 -8 -11 -4 -13 5 -17 3 -13 -6 5 -15 -29 -41 -42 -32 -5 2
-8 -2 -7 -10 0 -7 -3 -14 -9 -14 -5 0 -13 -9 -17 -21 -7 -19 -10 -21 -26 -9
-9 7 -14 10 -10 5 3 -4 -1 -16 -10 -26 -12 -14 -19 -17 -29 -8 -10 8 -13 5
-13 -13 0 -19 -2 -21 -10 -9 -9 13 -14 7 -11 -12 0 -4 -6 -5 -14 -2 -10 4 -15
0 -16 -12 0 -18 -1 -17 -9 1 -5 11 -9 14 -9 8 -1 -7 -7 -12 -13 -10 -7 1 -12
-3 -11 -9 1 -6 -4 -11 -12 -11 -8 0 -11 5 -8 11 3 6 -6 0 -22 -14 -16 -14 -25
-20 -22 -14 4 7 0 17 -8 24 -13 11 -14 10 -9 -5 5 -13 4 -16 -4 -11 -7 4 -12
2 -12 -5 0 -10 -3 -10 -12 -1 -9 9 -15 9 -27 -1 -12 -10 -13 -9 -6 3 8 13 6
13 -8 2 -9 -8 -25 -11 -38 -7 -14 5 -19 4 -15 -4 5 -7 1 -9 -8 -5 -9 3 -14 10
-11 14 6 9 -21 7 -30 -2 -4 -3 -18 -2 -33 3 -15 4 -48 14 -74 21 -27 7 -48 16
-48 20 0 4 -7 8 -15 8 -8 0 -15 4 -15 10 0 5 -3 9 -7 9 -20 -3 -34 2 -28 11 3
6 -2 10 -12 10 -10 0 -25 9 -33 20 -8 11 -19 20 -26 20 -6 0 -19 10 -30 22
-10 12 -13 18 -5 13 10 -5 12 -4 7 4 -4 6 -11 9 -16 6 -4 -3 -13 2 -20 10 -7
8 -9 15 -4 15 5 0 1 5 -9 11 -9 6 -14 15 -11 21 4 6 3 8 -3 5 -6 -4 -17 1 -24
10 -10 12 -10 14 -1 9 6 -4 12 -2 12 3 0 6 -7 11 -16 11 -8 0 -13 4 -10 8 3 5
-4 15 -15 22 -20 15 -27 36 -8 24 6 -3 3 5 -6 20 -9 14 -20 24 -24 21 -4 -2
-7 9 -6 25 1 16 -2 27 -6 25 -10 -7 -20 25 -12 37 3 7 1 8 -5 4 -8 -5 -12 3
-12 23 0 18 -5 31 -12 31 -9 0 -8 4 2 10 8 5 10 10 4 10 -7 0 -14 13 -16 29
-2 17 -1 28 4 25 4 -3 5 2 2 10 -3 9 -10 13 -15 10 -5 -3 -6 3 -2 12 5 13 3
15 -8 10 -8 -4 -6 -1 4 7 13 11 15 16 5 19 -10 4 -10 10 0 34 11 23 11 26 1
17 -7 -7 -18 -13 -23 -13 -6 0 -5 4 3 9 12 8 13 12 1 25 -11 14 -10 16 5 10
14 -6 16 -4 10 6 -13 21 -14 71 -1 64 6 -3 3 1 -7 9 -14 12 -15 16 -4 20 8 3
19 1 25 -5 6 -6 12 -6 17 3 5 8 4 10 -3 5 -7 -4 -12 -2 -12 5 0 6 8 9 19 6 13
-3 18 0 15 8 -3 7 -1 16 4 19 5 3 8 -11 7 -32 -2 -20 -1 -31 2 -24 3 6 9 10
14 7 5 -4 6 1 3 9 -3 9 -1 16 5 16 6 0 11 -4 11 -9 0 -6 9 -9 20 -8 11 1 20 4
20 7 0 3 18 6 40 6 35 1 38 -1 27 -15 -11 -14 -10 -14 5 -2 10 7 16 17 13 21
-3 5 -1 11 5 15 5 3 10 -1 10 -10 0 -9 4 -14 9 -11 5 3 7 16 5 29 -3 15 -2 17
3 6 5 -9 16 -15 25 -14z m105 10 c8 -9 13 -18 11 -21 -3 -2 -13 5 -23 16 -21
23 -11 27 12 5z m38 -3 c-3 -3 -11 0 -18 7 -9 10 -8 11 6 5 10 -3 15 -9 12
-12z m26 -6 c-9 -11 -9 -15 1 -19 7 -3 3 -5 -9 -3 -12 1 -26 6 -30 11 -5 4 -3
5 4 1 7 -4 18 2 25 13 7 11 14 18 17 16 2 -3 -1 -11 -8 -19z m289 12 c0 -4 -4
-8 -9 -8 -6 0 -12 4 -15 8 -3 5 1 9 9 9 8 0 15 -4 15 -9z m117 -11 c1 -11 1
-18 0 -16 -2 2 -8 11 -15 20 -9 12 -9 16 1 16 7 0 14 -9 14 -20z m68 -17 c-13
-13 -18 -12 -38 9 -12 13 -15 20 -7 15 29 -17 50 -15 44 4 -5 14 -4 15 5 2 7
-11 6 -19 -4 -30z m120 0 c-13 -13 -18 -12 -38 9 -12 13 -15 20 -7 15 29 -17
50 -15 44 4 -5 14 -4 15 5 2 7 -11 6 -19 -4 -30z m243 29 c-2 -6 8 -13 21 -15
21 -4 22 -3 10 13 -13 16 -12 17 4 4 13 -10 15 -17 6 -27 -6 -8 -15 -14 -20
-14 -13 0 -39 31 -34 41 8 13 16 11 13 -2z m-1258 -19 c-18 -12 -30 -13 -30
-2 0 4 10 9 22 9 18 2 20 0 8 -7z m4280 -15 c0 7 42 11 115 11 122 0 132 -4
116 -49 -4 -12 -7 -59 -6 -104 0 -46 -3 -83 -8 -83 -4 0 -3 -8 2 -19 6 -10 7
-21 4 -25 -4 -3 -7 -21 -8 -39 -2 -40 -14 -68 -37 -88 -10 -9 -18 -23 -18 -31
0 -8 -25 -41 -55 -73 -30 -32 -55 -54 -55 -50 0 5 -12 -2 -26 -16 -14 -13 -29
-23 -32 -23 -4 1 -16 -2 -27 -6 -11 -4 -24 -8 -29 -8 -5 0 -12 -6 -16 -12 -4
-7 -26 -13 -49 -13 -22 -1 -41 -5 -41 -10 0 -4 -4 -6 -8 -3 -5 3 -48 6 -96 8
-49 1 -99 7 -111 14 -13 7 -26 10 -29 6 -3 -3 -6 0 -6 6 0 7 -5 12 -10 12 -10
0 -22 8 -55 38 -8 7 -15 10 -15 5 0 -4 -7 5 -15 21 -8 15 -15 35 -15 42 0 8
-5 14 -12 14 -6 0 -8 3 -5 6 3 4 2 15 -4 26 -17 31 -18 129 -3 135 8 3 11 9 8
14 -3 6 -2 15 3 22 5 7 15 30 21 53 7 26 21 45 37 54 14 7 25 20 25 28 0 9 6
12 16 8 8 -3 12 -2 9 4 -3 6 -1 10 5 10 6 0 23 9 38 20 15 10 40 21 56 24 15
3 38 12 50 20 13 8 45 17 72 19 27 3 49 6 49 7 0 1 14 3 30 5 17 1 30 3 30 5
0 1 11 3 25 4 14 2 35 8 45 14 15 8 22 7 27 -1 5 -7 8 -8 8 -2z m-5065 -5 c3
-5 1 -10 -4 -10 -6 0 -11 5 -11 10 0 6 2 10 4 10 3 0 8 -4 11 -10z m1683
-1297 c-2 -4 -11 -8 -20 -8 -17 -2 -17 -1 0 15 15 16 28 11 20 -7z m-68 -43
c6 -11 8 -20 6 -20 -3 0 -10 9 -16 20 -6 11 -8 20 -6 20 3 0 10 -9 16 -20z
m-1015 -8 c-3 -3 -11 0 -18 7 -9 10 -8 11 6 5 10 -3 15 -9 12 -12z m968 -59
c-3 -8 -8 -11 -11 -8 -3 3 -14 -2 -24 -12 -10 -9 -18 -13 -18 -10 0 16 -2 23
-13 37 -11 13 -10 13 7 0 18 -14 19 -13 13 5 -7 19 -6 19 7 2 18 -23 28 -2 14
28 -7 15 -4 14 10 -4 11 -14 18 -31 15 -38z m27 53 c0 -2 -7 -7 -16 -10 -8 -3
-12 -2 -9 4 6 10 25 14 25 6z m-780 -106 c0 -5 -2 -10 -4 -10 -3 0 -8 5 -11
10 -3 6 -1 10 4 10 6 0 11 -4 11 -10z m419 -33 c0 -9 -2 -8 -6 1 -2 6 -10 9
-15 6 -7 -4 -8 -2 -4 5 9 13 26 5 25 -12z m99 -3 c2 -1 -5 -5 -15 -8 -9 -4
-14 -4 -10 0 4 4 1 14 -6 23 -11 14 -10 15 8 1 11 -8 21 -15 23 -16z m-184 -3
c-9 -9 -34 -9 -34 -1 0 5 9 8 20 7 10 -1 17 -3 14 -6z m137 0 c5 8 9 9 9 3 0
-18 -27 -37 -35 -24 -3 5 -3 15 1 22 6 9 9 9 12 -1 4 -11 6 -11 13 0z m-118
-16 c-3 -9 -8 -14 -10 -11 -3 3 -2 9 2 15 9 16 15 13 8 -4z m-99 -12 c-9 -7
-21 -10 -26 -7 -14 9 1 23 23 21 19 -1 19 -2 3 -14z m163 -1 c-7 -9 -13 -10
-15 -3 -2 6 -8 11 -13 11 -6 0 -7 -4 -4 -10 3 -6 -1 -7 -9 -4 -25 9 -8 24 24
22 24 -2 27 -5 17 -16z"/>
<path d="M6125 5111 c-6 -10 11 -51 21 -51 2 0 0 9 -6 20 -13 24 2 27 23 5 13
-13 16 -13 21 1 3 8 2 12 -4 9 -6 -3 -10 -1 -10 6 0 7 -3 9 -7 6 -3 -4 -12 -2
-19 4 -8 7 -14 7 -19 0z"/>
<path d="M6213 5085 c0 -8 3 -13 5 -10 3 3 10 0 17 -5 8 -7 12 -5 12 5 0 8 -3
13 -5 10 -3 -3 -10 0 -17 5 -8 7 -12 5 -12 -5z"/>
<path d="M6406 5043 c-6 -14 -5 -15 5 -6 7 7 10 15 7 18 -3 3 -9 -2 -12 -12z"/>
<path d="M6430 5020 c0 -5 5 -10 11 -10 5 0 7 5 4 10 -3 6 -8 10 -11 10 -2 0
-4 -4 -4 -10z"/>
<path d="M5996 4971 c-3 -5 1 -11 9 -14 9 -4 12 -1 8 9 -6 16 -10 17 -17 5z"/>
<path d="M6575 4771 c-3 -5 -2 -12 3 -15 5 -3 9 1 9 9 0 17 -3 19 -12 6z"/>
<path d="M6610 4620 c0 -5 5 -10 11 -10 5 0 7 5 4 10 -3 6 -8 10 -11 10 -2 0
-4 -4 -4 -10z"/>
<path d="M6615 4589 c-4 -6 -5 -12 -2 -15 2 -3 7 2 10 11 7 17 1 20 -8 4z"/>
<path d="M7286 4742 c-3 -5 1 -9 9 -9 8 0 12 4 9 9 -3 4 -7 8 -9 8 -2 0 -6 -4
-9 -8z"/>
<path d="M7288 4025 c-3 -3 -15 -7 -26 -10 -12 -2 -29 -8 -38 -13 -12 -7 -8
-9 15 -9 17 0 31 4 31 9 0 4 7 8 15 8 8 0 15 5 15 10 0 11 -4 13 -12 5z"/>
<path d="M6134 4009 c-9 -16 2 -22 21 -11 15 8 16 10 1 15 -8 3 -18 2 -22 -4z"/>
<path d="M6095 3980 c-3 -5 -1 -10 4 -10 6 0 11 5 11 10 0 6 -2 10 -4 10 -3 0
-8 -4 -11 -10z"/>
<path d="M6335 3980 c-3 -5 -1 -10 4 -10 6 0 11 5 11 10 0 6 -2 10 -4 10 -3 0
-8 -4 -11 -10z"/>
<path d="M6920 3980 c-9 -6 -10 -10 -3 -10 6 0 15 5 18 10 8 12 4 12 -15 0z"/>
<path d="M7080 3980 c-9 -6 -10 -10 -3 -10 6 0 15 5 18 10 8 12 4 12 -15 0z"/>
<path d="M7270 3360 c-9 -6 -10 -10 -3 -10 6 0 15 5 18 10 8 12 4 12 -15 0z"/>
<path d="M7225 3290 c-3 -5 -3 -10 1 -10 3 0 -1 -11 -9 -24 -14 -21 -14 -26
-2 -36 11 -9 15 -9 15 -1 0 6 -5 11 -11 11 -5 0 -7 5 -4 10 4 6 10 8 14 5 5
-2 7 7 5 21 -2 19 1 24 12 20 9 -3 12 -1 9 4 -8 13 -22 13 -30 0z"/>
<path d="M7193 3202 c1 -5 -11 -20 -27 -34 -24 -20 -26 -26 -13 -31 9 -3 19
-1 23 5 5 7 2 8 -6 3 -8 -5 -11 -3 -8 6 3 8 11 13 17 12 6 -2 11 2 11 8 0 5 4
8 8 5 4 -2 9 4 9 15 1 10 -2 19 -8 19 -5 0 -8 -4 -6 -8z"/>
<path d="M2812 5450 c-11 -11 -28 -35 -37 -54 -15 -32 -15 -36 0 -59 17 -26 7
-44 -17 -32 -7 4 -2 -2 12 -13 13 -11 28 -18 32 -16 4 3 8 -2 8 -11 0 -9 -4
-14 -8 -11 -4 2 -14 -5 -22 -17 -12 -20 -12 -21 3 -9 18 15 41 7 31 -11 -4 -7
-4 -9 1 -5 4 4 13 1 19 -8 10 -13 12 -13 12 5 0 11 -5 17 -10 14 -5 -3 -6 -1
-2 6 4 6 12 9 17 5 5 -3 7 -10 4 -15 -6 -8 2 -11 21 -8 4 0 11 -5 15 -13 7
-10 9 -10 10 2 0 10 3 9 8 -4 7 -19 8 -19 13 1 4 16 2 21 -11 18 -9 -1 -22 3
-28 10 -10 11 -7 13 15 10 15 -2 27 -4 27 -5 0 -1 9 -3 19 -5 29 -6 61 -41 45
-50 -7 -5 -10 -4 -6 3 5 6 -1 8 -15 4 -19 -5 -20 -7 -5 -10 9 -2 17 -9 17 -15
0 -7 4 -6 10 3 8 13 11 12 24 -5 8 -12 11 -27 6 -40 -4 -11 -5 -26 -2 -34 3
-9 0 -11 -9 -6 -11 6 -11 5 -2 -5 6 -7 9 -19 6 -26 -3 -8 0 -14 6 -14 6 0 11
-5 11 -11 0 -5 -6 -7 -12 -3 -7 4 -4 -3 7 -16 l20 -23 -25 13 c-22 12 -24 11
-13 -2 7 -8 10 -18 6 -21 -3 -4 -2 -7 3 -7 5 0 10 -12 11 -27 1 -19 -1 -22 -8
-12 -7 12 -9 11 -9 -2 0 -8 5 -20 12 -27 6 -6 9 -15 5 -19 -4 -3 -14 2 -23 13
-14 18 -14 17 -2 -6 7 -14 11 -29 10 -34 -2 -5 3 -13 9 -17 10 -6 10 -11 0
-22 -9 -12 -9 -16 1 -19 10 -4 10 -8 -1 -21 -7 -10 -9 -17 -4 -17 6 0 10 -18
9 -39 0 -22 -4 -37 -8 -34 -12 7 -9 -12 4 -25 6 -6 9 -15 5 -19 -4 -3 -14 2
-23 13 -14 18 -14 17 -2 -6 7 -14 11 -29 10 -34 -2 -5 3 -13 9 -17 10 -6 10
-11 0 -23 -9 -11 -10 -16 -2 -16 6 0 11 -5 11 -11 0 -5 -6 -7 -12 -3 -8 5 -7
0 2 -11 9 -11 10 -16 3 -11 -16 9 -17 -6 -1 -22 6 -6 9 -15 5 -19 -4 -3 -14 2
-23 13 -14 18 -14 17 -2 -6 7 -14 11 -28 10 -32 -1 -5 1 -8 6 -8 4 0 7 -31 7
-69 0 -38 -3 -67 -7 -64 -5 2 -8 -1 -8 -6 0 -6 4 -11 8 -11 5 0 9 -7 9 -15 0
-8 -4 -12 -9 -9 -4 3 -8 0 -8 -5 0 -6 5 -11 10 -11 6 0 10 -5 10 -11 0 -5 -4
-8 -9 -4 -5 3 -13 1 -16 -5 -4 -6 -1 -9 6 -8 7 2 13 -1 14 -7 0 -5 4 -16 8
-22 11 -18 2 -16 -17 3 -9 8 -16 11 -16 5 0 -5 5 -13 10 -16 6 -4 8 -11 5 -16
-4 -5 -3 -9 2 -9 4 0 9 -12 10 -27 1 -19 -1 -22 -8 -12 -7 12 -9 11 -9 -1 0
-9 5 -21 12 -28 6 -6 9 -15 5 -19 -4 -3 -14 2 -23 13 -14 18 -14 17 -2 -6 7
-14 11 -29 10 -34 -2 -5 3 -13 9 -17 10 -6 10 -11 0 -22 -9 -12 -9 -16 1 -19
10 -4 10 -8 -1 -21 -7 -10 -10 -17 -5 -17 5 0 9 -29 9 -64 0 -35 -3 -62 -7
-59 -5 2 -8 -1 -8 -6 0 -6 4 -11 8 -11 5 0 9 -7 9 -15 0 -8 -4 -12 -9 -9 -4 3
-8 0 -8 -5 0 -6 5 -11 10 -11 6 0 10 -5 10 -11 0 -5 -4 -8 -9 -4 -5 3 -13 1
-16 -5 -4 -6 -1 -9 5 -8 7 2 14 -5 15 -15 3 -16 1 -16 -13 -5 -14 11 -14 9 1
-15 21 -33 14 -50 -9 -21 -14 18 -14 17 -2 -6 7 -14 11 -29 10 -34 -2 -5 3
-13 9 -17 10 -6 10 -11 0 -23 -9 -11 -10 -16 -2 -16 6 0 11 -5 11 -11 0 -5 -6
-7 -12 -3 -8 5 -7 0 2 -11 9 -11 10 -16 3 -11 -16 9 -17 -6 -1 -22 6 -6 9 -15
5 -19 -4 -3 -14 2 -23 13 -14 18 -14 17 -2 -6 7 -14 11 -28 10 -32 -1 -5 1 -8
5 -8 5 0 8 -31 8 -69 0 -38 -3 -67 -7 -64 -5 2 -8 -1 -8 -6 0 -6 4 -11 8 -11
5 0 9 -7 9 -15 0 -8 -4 -12 -9 -9 -4 3 -8 0 -8 -5 0 -6 5 -11 10 -11 6 0 10
-5 10 -11 0 -5 -4 -8 -9 -4 -5 3 -13 1 -16 -5 -4 -6 -1 -9 6 -8 18 4 18 -33 0
-55 -13 -15 -13 -17 0 -12 10 4 14 -3 16 -21 1 -19 -1 -23 -8 -13 -7 11 -9 11
-9 -3 0 -9 7 -21 16 -26 15 -8 15 -10 0 -15 -11 -5 -15 -3 -10 5 4 7 3 8 -5 4
-8 -6 -9 -12 -2 -20 6 -7 8 -16 4 -19 -3 -4 -2 -7 4 -7 11 0 11 -29 -1 -48 -4
-7 -2 -12 5 -12 7 0 10 -2 7 -5 -11 -11 -56 18 -67 42 -6 13 -11 46 -11 74 0
59 -18 99 -54 118 -33 18 -66 86 -66 137 0 61 -9 82 -45 103 -48 28 -63 57
-75 146 -10 74 -14 83 -52 120 -47 46 -55 64 -74 165 -12 66 -19 79 -49 104
-40 32 -65 74 -65 108 0 13 -6 48 -14 77 -10 39 -23 60 -50 83 -46 38 -66 76
-66 128 0 52 -12 76 -61 120 -36 31 -41 43 -55 115 -12 65 -21 86 -47 115 -18
19 -39 43 -46 52 -14 19 -40 120 -41 160 0 19 -12 37 -45 63 -45 38 -47 42
-75 160 -23 101 -61 114 -345 125 -193 7 -215 6 -274 -12 -53 -16 -73 -29
-112 -71 -39 -43 -49 -61 -58 -112 -7 -33 -14 -72 -17 -87 -3 -14 -27 -52 -55
-83 -33 -38 -49 -65 -49 -84 0 -61 -28 -125 -75 -167 -41 -38 -45 -46 -45 -87
0 -60 -22 -109 -65 -145 -39 -31 -64 -86 -65 -140 0 -50 -24 -96 -64 -127 -38
-29 -56 -73 -56 -137 0 -55 -26 -111 -61 -132 -44 -26 -56 -53 -64 -136 -7
-74 -8 -75 -60 -125 -49 -47 -53 -54 -57 -105 -5 -68 -31 -123 -65 -141 -34
-18 -63 -82 -63 -142 0 -55 -12 -83 -49 -112 -50 -39 -59 -53 -65 -106 -13
-100 -18 -113 -62 -154 -24 -22 -46 -52 -50 -67 l-6 -28 330 0 330 0 13 68
c12 60 18 72 61 112 47 44 49 47 57 125 12 100 22 125 60 150 20 13 41 43 61
88 l31 69 47 -7 c92 -14 903 -17 960 -4 61 14 97 3 111 -35 5 -13 26 -33 46
-46 48 -29 71 -79 80 -170 7 -73 9 -76 56 -123 27 -26 51 -58 53 -70 2 -12 9
-51 15 -86 6 -35 12 -65 14 -67 2 -2 135 -4 296 -4 234 -1 296 -4 307 -15 16
-15 19 -29 5 -20 -5 3 -13 1 -16 -5 -4 -6 -1 -9 6 -8 9 2 13 -10 12 -42 -2
-76 -1 -74 -20 -59 -15 13 -15 12 -3 -8 8 -12 19 -19 25 -15 5 3 4 -2 -4 -12
-11 -13 -16 -14 -23 -4 -7 10 -9 10 -5 -2 2 -8 9 -15 14 -15 6 0 15 -3 19 -7
4 -5 0 -8 -10 -8 -9 0 -16 -6 -15 -12 3 -25 -1 -39 -10 -33 -5 3 -12 -4 -16
-15 -5 -16 -12 -19 -27 -14 -15 4 -18 3 -13 -7 6 -9 4 -11 -8 -6 -9 3 -19 2
-22 -3 -3 -6 -15 -6 -30 0 -15 6 -27 6 -30 0 -3 -5 -13 -6 -22 -3 -12 5 -14 3
-8 -7 6 -10 4 -12 -9 -7 -9 4 -14 3 -11 -2 3 -5 1 -12 -5 -16 -6 -4 -7 -11 -4
-17 5 -8 1 -9 -11 -4 -14 5 -16 4 -7 -7 7 -8 9 -17 5 -20 -3 -4 0 -13 7 -22
11 -13 10 -15 -1 -10 -10 4 -15 -1 -15 -14 0 -14 4 -17 12 -10 9 8 11 5 7 -10
-3 -13 3 -25 21 -37 15 -9 25 -19 22 -21 -2 -3 -15 3 -28 11 -23 15 -25 15
-23 -5 1 -12 10 -26 21 -31 18 -9 18 -9 1 5 -10 9 -14 18 -8 21 5 3 18 -4 28
-16 10 -13 23 -24 28 -25 6 -1 19 -5 30 -9 17 -7 18 -6 5 8 -8 9 -17 16 -20
16 -28 -1 -34 3 -16 13 13 8 20 8 26 -1 4 -6 11 -11 16 -10 4 1 11 -7 15 -17
7 -16 8 -15 8 5 1 12 6 22 12 22 5 0 7 5 3 12 -5 7 -3 8 7 3 18 -12 49 -14 55
-4 6 11 34 0 34 -13 0 -6 -6 -6 -14 1 -10 8 -16 9 -21 1 -3 -5 1 -10 10 -10 9
0 14 -4 11 -9 -3 -5 1 -11 9 -14 10 -4 12 -1 8 11 -6 14 -4 15 8 5 9 -7 20 -9
29 -3 17 11 43 -7 33 -23 -3 -6 -1 -7 6 -3 9 6 9 11 0 22 -11 14 1 20 15 7 3
-4 13 -8 22 -9 12 -2 13 0 3 12 -6 8 -14 12 -17 10 -2 -3 -13 -1 -23 4 -12 7
-20 7 -24 0 -3 -5 -11 -10 -16 -10 -6 0 -8 4 -4 9 3 5 0 13 -6 17 -7 4 -9 3
-5 -4 3 -6 1 -14 -6 -18 -7 -4 -10 -4 -6 1 4 4 4 13 -2 20 -6 8 -2 11 15 11
13 0 22 -3 20 -7 -3 -3 7 -6 20 -6 14 0 25 3 25 8 0 5 5 9 10 9 6 0 9 -5 8
-11 -2 -6 3 -14 11 -17 8 -2 11 0 8 5 -3 5 10 8 31 7 34 -3 36 -2 18 11 -11 8
-15 15 -10 15 6 0 16 -6 23 -13 12 -10 13 -8 7 8 -6 18 -5 19 7 3 8 -10 18
-14 22 -10 5 4 5 1 1 -5 -4 -8 -1 -13 8 -14 25 -2 30 -4 44 -12 13 -9 32 -1
32 13 0 5 -13 7 -30 5 -16 -2 -32 0 -34 4 -3 4 12 7 32 6 20 0 46 2 58 6 14 5
21 3 21 -6 0 -7 -8 -10 -20 -7 -13 3 -18 1 -13 -6 3 -6 2 -13 -4 -17 -5 -3
-10 -11 -10 -18 0 -6 7 -1 16 11 8 12 20 19 26 16 7 -4 6 -9 -2 -14 -8 -5 -7
-9 4 -13 9 -4 15 -1 13 5 -1 7 3 13 8 13 6 1 18 5 29 10 12 5 21 3 26 -6 5 -7
12 -10 16 -6 4 4 13 2 19 -3 9 -7 17 -5 26 7 11 14 11 15 1 9 -11 -7 -12 -4
-3 13 13 24 23 28 15 6 -4 -8 -1 -15 5 -15 7 0 5 -10 -5 -27 l-16 -28 19 23
c15 19 21 20 33 10 8 -7 12 -9 8 -4 -4 4 0 15 8 23 8 8 11 19 8 25 -4 7 -2 8
4 4 6 -4 9 -13 6 -20 -3 -8 0 -17 6 -21 8 -5 7 -11 -2 -23 -12 -15 -11 -16 5
-3 13 10 15 17 6 27 -9 11 -8 14 4 14 8 0 17 5 19 12 3 7 7 5 11 -6 4 -10 3
-15 -3 -11 -6 3 -10 1 -10 -5 0 -7 7 -9 16 -6 9 3 18 6 20 6 3 0 0 9 -6 21 -7
11 -9 23 -7 26 3 2 8 -5 12 -16 3 -12 11 -21 16 -21 6 0 7 5 4 10 -8 13 17 9
26 -4 10 -13 31 3 22 17 -3 7 4 3 16 -8 13 -11 25 -19 27 -17 7 4 6 -10 -2
-16 -4 -4 -4 -1 1 6 6 11 3 12 -14 3 -17 -10 -20 -9 -14 5 5 14 3 14 -16 3
-14 -9 -17 -15 -9 -18 7 -2 16 -9 20 -15 5 -8 8 -7 8 2 0 6 5 12 11 12 5 0 8
-4 5 -8 -3 -5 1 -9 9 -9 8 0 12 4 9 9 -8 13 11 9 24 -4 10 -10 15 -10 23 2 8
13 11 13 20 -3 11 -18 29 -15 29 6 0 7 -4 6 -11 -3 -10 -13 -10 -13 -6 1 4 11
-2 15 -23 15 -16 0 -26 -4 -23 -9 4 -6 1 -7 -6 -3 -7 5 -10 11 -7 14 3 3 1 11
-5 19 -8 8 -8 13 -1 13 6 0 12 -5 14 -12 2 -6 14 -12 27 -13 14 -1 20 3 17 11
-5 13 19 13 31 -1 4 -4 2 -5 -4 -1 -7 4 -13 3 -13 -2 0 -17 13 -22 28 -9 13
10 14 9 8 -1 -6 -9 -3 -12 9 -10 10 2 20 -4 22 -12 4 -12 3 -12 -5 -1 -6 8
-12 9 -16 3 -10 -17 20 -21 42 -6 19 13 22 12 31 -3 5 -10 12 -16 14 -13 3 3
-1 14 -9 24 -11 16 -16 17 -29 6 -8 -7 -15 -8 -15 -3 0 5 11 15 25 21 30 14
46 16 27 4 -9 -6 -7 -13 10 -28 18 -15 20 -15 9 -2 -11 15 -11 22 4 44 16 25
16 25 -4 15 -30 -16 -33 -13 -11 9 12 12 26 18 32 14 7 -4 8 -3 4 4 -4 7 -1
12 6 12 9 0 9 3 2 8 -17 11 -22 35 -12 55 6 12 5 19 -7 23 -8 3 -13 10 -10 14
3 4 -2 11 -11 14 -8 3 -12 11 -8 17 4 8 -1 9 -16 4 -13 -4 -20 -3 -17 2 3 5
-3 10 -14 10 -12 1 -17 -3 -13 -9 4 -7 2 -8 -4 -4 -7 4 -12 15 -12 24 0 15 -2
15 -10 2 -8 -12 -10 -12 -10 -1 0 11 -3 11 -16 1 -8 -8 -14 -9 -13 -4 4 22 -2
34 -18 34 -13 0 -14 3 -5 12 9 9 7 15 -6 25 -9 8 -12 12 -6 9 7 -3 14 1 17 9
4 10 1 12 -11 9 -15 -5 -15 -4 1 9 16 13 16 15 2 21 -11 4 -14 2 -9 -7 4 -6 3
-8 -1 -4 -12 10 -15 38 -4 31 5 -3 9 -1 9 5 0 5 -6 12 -12 14 -10 4 -10 6 0 6
8 1 10 6 5 14 -14 22 -12 40 5 54 9 7 13 13 7 12 -22 -3 -29 2 -15 11 10 6 11
10 3 10 -7 0 -13 4 -13 10 0 5 8 7 18 4 14 -5 15 -4 2 5 -17 12 -21 72 -5 83
6 5 6 8 -2 8 -7 0 -10 7 -6 17 5 12 3 14 -7 8 -9 -5 -11 -4 -6 4 4 6 12 8 18
5 7 -5 8 -2 2 7 -13 21 -11 43 6 57 8 7 11 12 5 11 -22 -3 -29 2 -15 11 10 6
11 10 3 10 -7 0 -13 4 -13 10 0 5 8 7 18 4 14 -5 15 -4 2 5 -17 12 -21 72 -5
83 6 5 6 8 -2 8 -7 0 -10 7 -6 17 5 12 3 14 -7 8 -9 -5 -11 -4 -6 4 4 6 13 8
19 4 7 -3 3 4 -8 17 -11 13 -14 20 -6 15 9 -5 12 -3 9 6 -3 8 2 20 11 27 9 8
11 11 4 8 -6 -4 -14 -2 -18 4 -3 5 0 10 7 10 8 0 9 3 2 8 -11 8 -13 153 -1
145 4 -2 7 1 7 6 0 6 -6 11 -12 11 -9 0 -8 4 2 10 8 5 10 10 4 10 -6 0 -11 7
-11 15 0 8 4 12 9 9 4 -3 8 0 8 5 0 6 -4 11 -10 11 -5 0 -10 5 -10 11 0 5 6 7
13 3 9 -6 9 -5 0 7 -10 12 -10 18 -1 27 7 7 8 12 2 12 -6 0 -11 7 -11 15 0 13
3 13 19 -2 11 -9 18 -11 18 -5 0 7 -4 12 -10 12 -5 0 -10 7 -10 16 0 14 3 14
15 4 9 -7 18 -10 22 -6 3 3 2 6 -4 6 -6 0 -14 7 -17 16 -6 15 -4 15 19 0 14
-9 36 -14 51 -12 21 4 25 2 20 -12 -5 -14 -3 -13 9 2 16 21 10 41 -8 29 -29
-18 -78 -5 -76 20 0 9 2 9 6 -1 2 -6 9 -10 14 -6 5 3 9 0 9 -6 0 -13 32 -9 42
4 4 6 13 4 22 -4 14 -11 20 -10 39 6 15 13 18 14 9 2 -10 -13 -10 -17 0 -20
10 -4 10 -8 -1 -21 -9 -11 -10 -17 -2 -17 6 0 11 5 11 11 0 8 4 8 14 0 7 -6
21 -9 30 -5 10 4 18 0 22 -10 3 -9 11 -16 18 -16 6 0 -2 12 -18 26 -15 14 -26
28 -23 31 9 8 57 -50 52 -64 -2 -8 2 -10 13 -6 15 6 15 5 3 -10 -12 -15 -10
-17 16 -13 20 2 30 -1 30 -10 0 -7 -4 -11 -8 -8 -4 2 -7 -5 -6 -16 1 -12 7
-18 14 -16 7 3 10 -1 7 -9 -3 -8 -12 -11 -19 -9 -7 3 -15 1 -19 -4 -6 -9 23
-10 39 0 6 3 11 -9 12 -28 1 -24 -2 -32 -10 -28 -7 3 -3 -1 7 -10 10 -8 23
-13 29 -9 5 3 1 -7 -9 -23 -10 -16 -14 -26 -9 -22 12 11 54 -42 47 -60 -4 -11
-2 -13 8 -7 9 5 11 4 6 -4 -6 -9 -12 -9 -24 1 -15 11 -15 11 -5 -3 9 -10 9
-19 2 -26 -6 -6 -5 -10 5 -10 8 0 13 4 10 9 -3 4 2 5 10 2 13 -5 12 -9 -5 -23
-20 -16 -20 -17 -3 -31 17 -14 18 -13 6 2 -8 10 -9 18 -3 23 6 3 13 -6 17 -20
3 -14 11 -25 16 -25 6 0 8 -6 5 -14 -3 -8 -2 -17 4 -20 5 -2 4 -3 -3 -2 -7 2
-13 9 -13 16 0 7 -7 15 -15 17 -13 4 -13 3 0 -6 13 -9 13 -11 1 -11 -11 0 -9
-4 5 -14 10 -8 20 -19 20 -25 1 -6 2 -18 3 -26 0 -8 6 -15 12 -15 5 0 8 4 4 9
-3 5 -1 12 4 15 5 4 8 -2 6 -11 -1 -10 3 -24 9 -32 9 -12 7 -12 -12 -2 -13 7
-26 10 -30 7 -3 -3 0 -6 7 -6 7 0 9 -5 5 -12 -4 -6 -3 -8 3 -5 6 4 19 0 29 -9
18 -15 18 -15 -3 -9 -12 3 -25 1 -29 -6 -4 -7 -3 -9 3 -6 6 4 23 1 37 -7 l27
-13 -23 -7 -23 -6 25 -22 c14 -13 20 -19 14 -15 -9 6 -11 2 -7 -12 3 -12 10
-18 16 -14 6 3 7 1 3 -5 -4 -7 -2 -12 5 -12 7 0 9 -3 6 -7 -4 -3 -1 -13 5 -21
10 -11 7 -18 -12 -34 -16 -13 -19 -18 -7 -14 9 3 25 9 35 12 10 3 13 2 7 -3
-12 -10 -15 -53 -3 -53 4 0 8 -9 8 -19 0 -11 5 -23 10 -26 6 -4 8 -10 5 -15
-3 -5 -1 -11 5 -15 6 -3 8 -24 5 -47 -5 -39 4 -50 9 -12 2 10 9 20 17 22 8 2
10 0 4 -5 -17 -14 -17 -36 0 -30 8 4 15 2 15 -3 0 -6 -6 -10 -14 -10 -8 0 -17
-4 -20 -9 -3 -4 6 -7 20 -5 14 1 23 0 20 -3 -3 -4 0 -13 7 -21 9 -13 9 -14 0
-8 -7 4 -13 2 -13 -3 0 -6 7 -11 16 -11 8 0 12 -5 9 -10 -4 -7 -13 -6 -27 1
-15 8 -23 8 -32 -1 -8 -8 -7 -10 6 -5 11 5 26 -2 43 -19 14 -14 25 -22 25 -19
0 3 7 0 15 -7 16 -13 10 -35 -6 -24 -5 3 -7 9 -5 13 3 3 -3 7 -13 7 -10 0 -18
-6 -18 -12 0 -7 7 -10 15 -6 9 3 13 1 9 -5 -5 -7 2 -10 18 -8 14 1 28 -2 32
-8 3 -6 1 -7 -5 -3 -6 3 -13 2 -17 -4 -3 -5 1 -10 9 -10 9 0 16 -4 16 -10 0
-5 -6 -7 -14 -4 -8 3 -16 1 -20 -4 -6 -11 24 -9 43 3 9 5 12 4 8 -2 -8 -13 27
-46 38 -36 4 5 5 3 2 -3 -3 -6 -2 -24 3 -40 l10 -29 -4 28 c-2 15 0 29 4 32 7
4 8 -3 11 -50 1 -23 3 -24 15 -8 7 10 14 14 14 9 0 -6 6 -3 13 5 6 8 11 12 10
10 -6 -9 20 -30 30 -24 6 3 7 1 3 -5 -4 -7 -1 -12 6 -13 7 -1 22 -2 33 -3 11
0 24 4 28 9 5 6 7 3 3 -7 -3 -10 -1 -20 5 -23 5 -4 6 -12 3 -18 -4 -7 -4 -9 1
-5 4 4 15 2 24 -5 12 -9 11 -7 -2 13 -23 34 -22 48 2 19 15 -19 22 -21 32 -12
9 9 17 9 32 1 17 -9 19 -8 13 8 -6 18 -5 18 7 2 11 -14 16 -15 27 -5 10 9 11
9 6 -1 -6 -9 -1 -11 19 -8 33 6 58 -3 51 -19 -2 -7 4 -21 15 -31 11 -10 19
-12 19 -6 0 7 -5 12 -11 12 -5 0 -7 5 -4 10 10 16 23 12 30 -11 4 -11 9 -18
12 -16 10 11 -19 48 -33 43 -8 -3 -14 -1 -14 5 0 7 10 9 27 4 24 -6 25 -5 13
12 -8 10 -1 7 14 -7 22 -19 28 -21 23 -7 -4 9 -2 17 3 17 6 0 10 -8 10 -17 1
-16 2 -16 17 2 13 16 15 17 10 3 -6 -17 -3 -19 33 -22 8 -1 14 -9 14 -19 -1
-9 3 -14 8 -11 5 3 7 12 4 20 -3 8 -1 14 4 14 6 0 10 -6 10 -12 1 -7 7 -2 16
12 13 22 14 23 9 3 -5 -17 -2 -22 14 -20 11 0 17 5 15 9 -3 5 -9 6 -14 3 -4
-3 -5 5 -2 17 5 19 7 20 10 6 2 -10 10 -18 18 -18 12 0 13 -4 4 -23 -11 -21
-10 -21 4 -3 14 17 14 21 1 36 -13 14 -13 17 0 17 8 0 11 -5 8 -10 -4 -6 0 -8
10 -4 9 3 21 -1 29 -11 12 -15 11 -16 -4 -3 -10 7 -18 9 -18 3 0 -14 28 -23
36 -11 3 5 0 16 -6 24 -9 11 -9 15 -1 15 6 0 11 -5 11 -11 0 -8 4 -8 13 -2 6
5 25 8 42 7 21 -2 25 0 15 6 -8 5 -17 7 -21 4 -4 -2 -11 0 -14 6 -4 6 -1 9 7
8 8 -2 13 6 12 19 0 12 4 21 10 20 6 -1 11 8 10 20 0 12 3 20 7 18 4 -3 10 2
13 11 3 8 2 12 -4 9 -6 -3 -10 -1 -10 4 0 6 5 11 11 11 6 0 1 9 -12 21 -13 11
-18 18 -12 14 8 -4 11 -1 7 9 -3 9 -9 15 -12 14 -21 -2 -32 3 -26 14 5 8 0 9
-15 5 -18 -4 -21 -2 -17 10 5 13 4 14 -9 3 -12 -10 -15 -10 -15 3 0 9 -6 14
-12 12 -17 -6 -39 13 -57 48 -8 15 -20 27 -28 27 -7 0 -12 3 -12 8 3 19 -3 33
-23 52 -12 11 -23 30 -25 42 -2 12 -9 25 -15 29 -6 4 -8 14 -5 24 4 9 3 14 -1
11 -4 -3 -14 4 -21 16 -7 11 -8 17 -2 13 6 -3 11 -1 11 4 0 6 -6 11 -12 11 -9
0 -8 4 2 10 12 8 12 10 -5 10 -17 0 -17 2 -5 10 10 6 11 10 3 10 -7 0 -13 9
-13 20 0 11 -5 20 -10 20 -7 0 -7 6 0 19 7 14 7 22 -2 27 -7 5 -8 3 -3 -7 5
-8 4 -11 -1 -6 -5 5 -9 12 -9 15 0 4 -4 13 -9 21 -5 8 -4 16 5 22 11 7 9 9 -6
9 -17 0 -17 2 -5 10 13 8 8 14 -10 12 -3 0 -6 8 -6 18 0 10 4 16 8 14 5 -3 -1
11 -12 31 -17 30 -18 40 -9 52 10 11 10 14 -2 11 -9 -2 -13 4 -11 16 2 11 -1
15 -8 11 -6 -4 -11 -1 -9 6 4 33 -1 50 -13 43 -8 -5 -8 -1 2 12 8 10 10 16 6
12 -12 -10 -58 92 -52 115 3 13 -1 21 -14 24 -12 3 -17 12 -15 24 2 11 0 17
-6 14 -8 -6 -11 2 -8 22 0 3 -6 10 -15 15 -9 5 -14 13 -11 19 4 5 -1 9 -10 9
-12 0 -15 6 -10 21 5 15 4 19 -4 15 -7 -4 -24 13 -42 43 -18 28 -36 48 -40 45
-5 -3 -9 4 -9 16 0 12 -4 18 -10 15 -5 -3 -10 1 -10 10 0 9 -5 13 -10 10 -6
-3 -13 1 -16 9 -3 9 -13 16 -21 16 -8 0 -11 5 -7 12 5 8 2 9 -9 5 -16 -6 -22
4 -18 27 1 5 -5 6 -14 3 -8 -4 -15 -2 -15 3 0 6 -7 10 -15 10 -8 0 -19 9 -25
20 -6 11 -20 20 -30 20 -11 0 -20 5 -20 11 0 5 -5 7 -12 3 -8 -5 -9 -2 -5 10
6 14 4 15 -14 5 -15 -8 -19 -8 -15 0 4 7 -1 11 -13 11 -12 0 -21 7 -21 15 0 8
-6 12 -14 9 -8 -3 -17 -1 -21 5 -4 7 1 8 12 4 16 -6 16 -4 -2 18 -15 18 -16
20 -2 10 14 -11 17 -11 17 0 0 9 3 10 8 4 9 -14 21 -13 51 4 21 12 23 11 18
-3 -5 -13 -3 -15 12 -7 10 6 20 9 22 8 2 -1 3 0 2 2 -1 2 6 16 17 31 15 21 25
26 45 22 14 -2 25 0 25 7 0 5 -6 9 -12 7 -7 -1 -10 -1 -5 1 4 3 4 9 1 15 -4 6
3 5 15 -1 15 -9 26 -9 39 -1 15 10 14 10 -4 5 -12 -3 -26 0 -32 8 -9 10 -8 14
3 14 8 0 12 -4 9 -9 -7 -11 7 -10 25 1 8 5 11 16 8 24 -4 11 -1 14 8 11 7 -3
12 -14 10 -25 -2 -11 0 -17 6 -14 5 4 7 10 4 15 -5 8 18 26 40 30 6 1 17 6 25
12 12 8 11 8 -4 4 -14 -5 -17 -3 -11 11 4 10 8 25 9 33 2 8 6 14 9 13 4 -2 12
-3 18 -3 5 0 7 -5 3 -12 -4 -7 -3 -8 5 -4 6 4 9 11 7 15 -3 4 6 18 20 30 15
13 22 26 17 34 -20 32 4 47 37 23 8 -6 4 2 -10 18 -24 27 -24 28 -3 17 19 -10
22 -9 17 4 -4 8 -11 15 -17 15 -6 0 -7 3 -4 6 4 4 14 1 23 -7 16 -13 16 -12 6
8 -17 31 -15 38 5 16 10 -10 17 -17 15 -14 -1 2 5 13 15 23 20 22 11 24 -11 2
-15 -14 -16 -14 -16 0 0 9 4 16 8 16 5 0 8 13 7 29 -1 26 1 29 17 20 22 -12
23 -6 2 15 -9 9 -11 16 -4 16 6 0 9 4 6 8 -3 5 2 9 10 9 9 0 13 -6 9 -16 -5
-13 -4 -14 7 -3 11 11 10 16 -6 27 -16 12 -17 17 -6 30 7 8 9 23 6 32 -5 15
-3 15 10 -2 15 -18 16 -18 10 -1 -3 10 -1 25 5 32 10 12 8 13 -7 8 -11 -3 -15
-2 -8 3 6 4 10 16 8 26 -1 9 2 15 7 11 5 -3 9 2 9 11 0 10 -5 13 -12 9 -10 -6
-10 -5 -1 8 7 8 9 19 5 23 -4 5 -1 5 6 1 7 -4 10 -12 7 -17 -3 -5 1 -6 10 -2
12 4 13 8 5 13 -7 4 -13 26 -15 49 -2 33 1 41 11 37 8 -3 14 -1 14 3 0 5 -5
11 -10 13 -6 2 -12 14 -15 27 -4 22 -3 22 14 7 9 -9 22 -16 27 -16 5 0 1 5 -9
11 -12 7 -16 17 -12 32 5 17 4 19 -4 7 -9 -12 -11 -11 -11 8 0 16 4 21 13 16
6 -4 4 2 -6 13 -14 16 -15 22 -5 26 10 4 10 6 0 6 -10 1 -10 6 -1 22 8 15 8
19 0 15 -6 -4 -11 0 -11 9 0 10 5 14 13 10 6 -4 5 -1 -3 7 -17 15 -20 40 -5
50 6 4 2 8 -7 8 -10 0 -18 5 -18 11 0 5 6 7 13 3 6 -4 4 1 -5 12 -14 16 -15
23 -5 34 9 10 9 11 0 6 -9 -5 -13 0 -13 13 0 12 -4 21 -9 21 -5 0 -12 7 -15
16 -4 10 -2 13 7 8 9 -6 9 -5 0 8 -7 8 -10 18 -6 21 3 4 -1 7 -9 7 -11 0 -15
8 -14 25 2 13 0 23 -4 20 -7 -4 -34 29 -31 39 2 10 -23 34 -31 29 -5 -2 -8 3
-8 11 0 9 -7 16 -15 16 -9 0 -12 6 -8 17 4 11 3 14 -5 9 -7 -4 -12 -2 -12 4 0
6 -4 8 -10 5 -6 -3 -10 1 -10 9 0 9 -6 16 -13 16 -8 0 -19 10 -25 23 -6 12
-11 16 -11 9 -1 -10 -4 -10 -15 0 -8 7 -11 17 -8 22 3 5 -2 7 -11 3 -9 -3 -18
0 -21 9 -3 8 -15 14 -26 14 -11 0 -19 3 -19 8 3 18 -2 22 -20 12 -14 -7 -22
-7 -27 2 -5 7 -3 8 6 3 9 -5 11 -4 6 4 -4 6 -15 10 -24 9 -11 -2 -16 3 -14 12
1 10 -2 9 -13 -4 -15 -20 -15 -20 -15 0 0 16 -2 17 -10 4 -6 -10 -10 -11 -10
-2 0 6 -9 12 -21 12 -13 0 -18 4 -13 13 5 8 2 8 -9 -2 -13 -11 -17 -11 -17 -1
0 8 -3 10 -7 7 -3 -4 -12 -2 -20 5 -11 9 -12 7 -7 -8 4 -14 1 -13 -15 6 -14
16 -19 19 -15 7 5 -13 2 -16 -10 -11 -9 3 -16 11 -16 18 0 6 -5 4 -10 -4 -7
-11 -10 -11 -10 -2 0 7 -5 10 -10 7 -6 -4 -17 -2 -25 5 -10 9 -16 7 -24 -7 -7
-12 -10 -13 -11 -4 0 7 -6 11 -15 7 -8 -3 -15 -1 -15 4 0 6 -5 10 -11 10 -6 0
-7 -6 -2 -12 4 -7 -5 -5 -19 4 -15 10 -29 14 -32 9 -7 -11 -56 -20 -73 -14 -7
3 -11 8 -8 12 2 4 -2 8 -9 8 -8 0 -12 -5 -10 -12 3 -6 -5 -11 -16 -11 -11 0
-20 6 -20 13 0 7 -5 13 -11 13 -5 0 -8 -4 -5 -9 3 -5 -1 -11 -9 -15 -8 -3 -15
-1 -15 4 0 6 -5 10 -11 10 -5 0 -7 -6 -3 -12 4 -7 -3 -4 -15 6 -17 16 -21 17
-16 4 5 -13 1 -16 -17 -13 -13 1 -32 6 -42 11 -14 5 -17 4 -11 -5 6 -10 3 -11
-15 -1 -12 7 -20 8 -16 2 3 -5 -1 -13 -10 -16 -8 -3 -12 -2 -9 4 3 6 -1 10 -9
10 -9 0 -16 -6 -16 -12 0 -9 -3 -9 -9 1 -8 12 -12 12 -24 2 -12 -9 -16 -9 -20
1 -4 10 -8 10 -16 -2 -10 -13 -11 -13 -11 0 0 9 -3 11 -8 5 -9 -13 -35 -13
-44 -1 -4 6 -13 4 -22 -3 -11 -9 -16 -10 -16 -2 0 6 -5 11 -11 11 -5 0 -7 -5
-3 -11 4 -7 -1 -7 -16 1 -15 8 -20 8 -16 1 8 -12 -6 -15 -18 -4 -10 10 -46 11
-40 1 3 -4 0 -8 -5 -8 -6 0 -11 5 -11 11 0 6 -7 3 -16 -5 -17 -18 -28 -21 -19
-6 8 13 -8 13 -22 -1 -8 -8 -13 -8 -18 1 -5 8 -12 7 -24 -4 -15 -14 -18 -14
-18 -1 0 8 3 12 7 10 4 -2 7 3 7 12 0 13 -4 12 -18 -6 -12 -15 -19 -17 -23 -9
-5 10 -7 10 -12 0 -5 -10 -9 -9 -19 5 -13 17 -14 17 -20 0 -7 -17 -8 -17 -21
0 -11 15 -13 15 -8 2 5 -17 -6 -18 -71 -3 -49 11 -79 11 -91 2 -8 -5 -19 -2
-30 9 -16 16 -17 16 -12 1 5 -12 2 -16 -13 -15 -10 1 -19 8 -19 16 0 11 -4 10
-15 -5 -9 -12 -14 -14 -15 -6 0 8 -5 10 -12 6 -8 -5 -9 -1 -5 12 7 18 6 18 -6
2 -11 -14 -16 -15 -27 -5 -10 9 -11 9 -6 0 4 -7 2 -13 -3 -13 -6 0 -11 6 -11
13 0 8 -4 7 -10 -3 -8 -13 -14 -8 -12 11 1 3 -5 6 -13 6 -8 0 -11 -7 -7 -16 5
-14 4 -14 -13 -1 -11 9 -16 10 -11 3 4 -7 2 -13 -3 -13 -6 0 -11 8 -11 18 0
13 -2 14 -9 3 -6 -9 -11 -10 -15 -2 -5 8 -13 8 -27 1 -10 -6 -19 -7 -19 -3 0
17 -47 12 -68 -7z m1452 -6 c3 -8 2 -12 -4 -9 -6 3 -10 10 -10 16 0 14 7 11
14 -7z m-1434 -204 c0 -5 -2 -10 -4 -10 -3 0 -8 5 -11 10 -3 6 -1 10 4 10 6 0
11 -4 11 -10z m156 -2 c3 -4 -1 -5 -10 -4 -8 1 -18 5 -22 8 -3 4 1 5 10 4 8
-1 18 -5 22 -8z m900 -57 c-7 -11 18 -33 27 -24 12 11 8 25 -5 17 -6 -4 -8 -3
-5 4 8 12 32 10 44 -3 4 -4 2 -5 -4 -1 -8 4 -13 1 -13 -8 0 -9 -3 -16 -7 -17
-5 0 -18 -2 -30 -5 -19 -3 -22 0 -19 19 6 29 5 27 12 27 3 0 3 -4 0 -9z m139
-1 c-3 -5 -1 -10 5 -10 6 0 8 -5 4 -12 -5 -8 -2 -9 10 -5 11 5 15 3 10 -4 -4
-7 -1 -10 7 -7 8 3 13 12 11 19 -2 8 0 11 4 7 4 -4 14 -2 23 4 9 7 5 0 -8 -15
-14 -15 -20 -27 -13 -27 6 0 13 -8 16 -17 3 -12 4 -11 3 4 -1 12 0 23 3 24 12
4 50 -13 50 -23 0 -6 -6 -6 -15 2 -9 7 -18 10 -22 6 -3 -3 0 -6 8 -6 12 0 11
-2 -1 -11 -13 -9 -12 -10 3 -5 10 3 20 0 23 -8 8 -20 31 -27 31 -10 0 7 -5 10
-10 7 -6 -4 -7 -1 -2 7 6 9 4 11 -5 5 -9 -5 -11 -4 -6 4 6 8 12 9 20 2 7 -6
15 -8 18 -5 3 3 9 0 14 -7 4 -8 3 -10 -4 -5 -8 5 -12 -1 -12 -15 0 -22 0 -22
23 -3 12 10 16 12 10 4 -18 -20 -16 -35 2 -20 9 7 18 10 22 6 3 -3 1 -6 -5 -6
-21 0 -13 -28 11 -36 12 -5 25 -7 29 -6 4 1 5 -5 1 -14 -5 -13 -7 -13 -14 -2
-5 7 -9 9 -9 3 0 -20 17 -38 24 -26 9 14 26 14 26 0 0 -5 -4 -7 -10 -4 -5 3
-10 -1 -10 -10 0 -9 4 -14 8 -11 4 2 14 0 22 -6 13 -8 13 -9 0 -5 -10 3 -16
-2 -17 -14 -1 -10 3 -19 8 -19 6 0 7 5 4 10 -3 6 -1 10 5 10 6 0 10 -6 8 -12
-1 -7 4 -24 11 -37 8 -14 9 -21 2 -17 -6 4 -11 2 -11 -3 0 -6 4 -11 10 -11 5
0 6 -7 3 -17 -5 -12 -3 -14 7 -8 9 5 11 4 6 -3 -4 -7 -1 -12 6 -13 10 0 10 -2
1 -6 -7 -2 -13 -9 -13 -14 0 -6 4 -8 8 -5 5 3 9 0 10 -7 1 -7 3 -23 5 -37 2
-14 -2 -31 -7 -39 -8 -11 -8 -13 2 -7 19 11 14 -12 -5 -24 -15 -9 -14 -10 7
-4 22 6 23 5 12 -9 -9 -10 -10 -17 -2 -22 13 -8 13 -25 -1 -25 -5 0 -7 6 -3
13 4 6 3 8 -2 4 -11 -10 -12 -67 -1 -60 5 3 6 12 2 22 -4 11 -3 13 4 6 14 -14
2 -55 -14 -49 -7 3 -16 1 -19 -4 -3 -5 2 -9 11 -8 9 0 18 -5 21 -13 3 -9 0
-11 -9 -6 -8 5 -11 5 -7 0 4 -4 2 -15 -5 -24 -10 -14 -10 -14 4 -4 14 11 16 7
15 -36 -1 -34 -4 -46 -12 -40 -7 5 -11 3 -11 -6 0 -8 5 -15 11 -15 6 0 3 -5
-6 -11 -10 -5 -18 -15 -18 -22 0 -7 4 -6 10 3 13 20 12 7 -2 -27 -6 -15 -10
-34 -9 -42 1 -7 -2 -10 -8 -6 -6 3 -9 0 -5 -8 3 -8 1 -18 -5 -22 -6 -3 -11
-15 -11 -26 0 -11 -4 -17 -10 -14 -5 3 -12 -6 -16 -20 -3 -14 -12 -25 -20 -25
-8 0 -11 -6 -7 -16 4 -10 -1 -17 -16 -21 -11 -3 -18 -9 -15 -14 3 -5 -1 -9 -9
-9 -8 0 -22 -10 -31 -22 -9 -13 -14 -16 -11 -8 4 8 -1 6 -9 -4 -9 -11 -16 -16
-16 -10 0 5 -5 2 -10 -6 -9 -13 -10 -13 -10 0 0 10 -3 11 -8 3 -4 -6 -16 -13
-27 -15 -11 -1 -26 -10 -33 -18 -8 -8 -11 -10 -8 -4 8 16 -17 25 -35 12 -11
-8 -11 -9 2 -5 9 3 16 -1 16 -8 0 -11 -6 -11 -30 1 -16 9 -26 11 -23 6 3 -6
-1 -13 -10 -16 -8 -3 -12 -2 -9 4 3 6 -3 10 -15 10 -13 0 -19 4 -14 12 4 7 3
8 -5 4 -8 -6 -9 -12 -2 -20 8 -9 6 -12 -9 -11 -11 1 -23 5 -27 10 -5 4 -2 5 5
1 18 -10 15 -1 -5 15 -11 10 -14 10 -9 2 5 -9 -1 -13 -18 -13 -14 0 -27 3 -27
8 -6 35 -3 120 3 116 4 -3 8 0 8 5 0 6 -4 11 -10 11 -5 0 -10 5 -10 11 0 5 5
7 12 3 7 -4 8 -3 4 4 -12 19 -16 53 -5 47 5 -4 9 -1 9 4 0 6 -6 11 -12 11 -9
0 -8 4 2 10 8 5 10 10 4 10 -6 0 -11 7 -11 15 0 8 4 12 9 9 4 -3 8 0 8 5 0 6
-6 11 -12 11 -9 0 -8 4 2 10 10 6 11 10 3 10 -7 0 -13 5 -13 11 0 5 5 7 12 3
7 -4 8 -3 4 4 -12 19 -16 53 -5 47 5 -4 9 -1 9 4 0 6 -6 11 -12 11 -9 0 -8 4
2 10 8 5 10 10 4 10 -6 0 -11 7 -11 15 0 8 4 12 9 9 4 -3 8 0 8 5 0 6 -6 11
-12 11 -9 0 -8 4 2 10 10 6 11 10 3 10 -7 0 -13 5 -13 11 0 5 5 7 12 3 7 -4 8
-3 4 4 -12 19 -16 53 -5 47 5 -4 9 -1 9 4 0 6 -6 11 -12 11 -9 0 -8 4 2 10 8
5 10 10 4 10 -6 0 -11 7 -11 15 0 8 4 12 9 9 4 -3 8 0 8 5 0 6 -6 11 -12 11
-9 0 -8 4 2 10 10 6 11 10 3 10 -7 0 -13 5 -13 11 0 5 5 7 11 3 7 -4 7 1 -1
15 -9 17 -9 26 1 37 9 11 9 14 -2 15 -8 0 -5 4 6 9 18 8 18 9 2 9 -11 1 -17 6
-14 14 2 6 11 11 18 10 10 -2 9 1 -2 9 -16 11 -16 13 0 27 9 9 11 12 4 7 -8
-5 -17 -6 -20 -2 -4 4 -1 11 7 16 10 7 11 10 3 10 -15 0 -13 21 2 32 6 5 4 8
-4 8 -11 0 -9 4 5 15 16 13 17 14 1 9 -22 -8 -20 15 3 33 13 10 11 12 -10 8
-21 -3 -23 -2 -8 8 15 10 15 12 0 23 -15 11 -14 12 8 7 24 -5 24 -5 6 9 -14
11 -16 17 -6 23 10 6 9 9 -1 17 -10 7 -8 8 9 5 12 -3 20 -1 16 4 -3 5 -12 9
-20 9 -8 0 -14 5 -14 11 0 5 6 7 13 3 9 -6 9 -4 1 7 -12 15 -11 30 2 63 5 14
4 17 -4 12 -17 -10 -15 -1 4 14 8 8 14 9 13 4 -5 -26 3 -33 36 -31 19 1 35 5
35 10 0 4 9 7 21 7 11 0 17 5 14 10 -7 12 23 9 44 -4 11 -7 13 -5 8 6 -3 9 -3
19 0 22 10 10 15 7 8 -4z m-2391 -516 c9 -8 16 -21 17 -27 0 -7 2 -38 4 -69 4
-71 21 -107 61 -133 40 -26 57 -64 58 -135 1 -32 5 -56 9 -53 5 3 8 -1 6 -8
-5 -38 3 -56 34 -72 44 -25 67 -59 72 -109 12 -129 17 -138 68 -159 18 -7 37
-20 44 -29 16 -20 16 -60 1 -61 -7 0 -197 0 -422 0 -413 1 -432 3 -420 36 3 7
23 22 44 34 22 12 40 25 40 29 7 142 19 175 78 214 21 14 40 32 41 40 1 7 3
36 5 63 5 81 17 124 41 147 12 11 24 19 27 17 7 -6 37 27 47 54 5 13 9 44 9
68 -1 30 8 61 25 94 15 27 27 47 27 42 0 -4 9 2 20 13 24 24 43 25 64 4z
m3255 -560 c-12 -13 -26 -21 -31 -18 -12 8 18 41 37 41 12 0 10 -6 -6 -23z
m-69 -99 c0 -2 -6 -2 -14 1 -8 3 -17 0 -21 -5 -3 -6 -11 -9 -16 -5 -6 4 -6 11
2 20 8 10 16 11 30 3 10 -5 19 -12 19 -14z m-170 -75 c-14 -11 -29 -20 -35
-20 -5 0 4 9 20 20 38 25 48 25 15 0z m-40 -51 c-7 -11 -14 -18 -17 -15 -3 3
0 12 7 21 18 21 23 19 10 -6z m-50 -4 c0 -2 -6 -5 -13 -8 -8 -3 -14 1 -14 8 0
7 6 11 14 8 7 -3 13 -6 13 -8z m-560 -211 c0 -8 -19 -13 -24 -6 -3 5 1 9 9 9
8 0 15 -2 15 -3z m54 -36 c-4 -6 0 -14 7 -19 10 -6 10 -9 2 -9 -14 0 -35 35
-26 43 9 10 24 -3 17 -15z m71 -8 c3 -5 1 -10 -4 -10 -6 0 -11 5 -11 10 0 6 2
10 4 10 3 0 8 -4 11 -10z m125 -254 c0 -3 -4 -8 -10 -11 -5 -3 -10 -1 -10 4 0
6 5 11 10 11 6 0 10 -2 10 -4z m295 -846 c3 -6 -1 -7 -9 -4 -18 7 -21 14 -7
14 6 0 13 -4 16 -10z m-1380 -188 c-3 -3 -11 0 -18 7 -9 10 -8 11 6 5 10 -3
15 -9 12 -12z m239 -4 c-2 -13 -2 -17 2 -10 3 6 11 12 17 12 8 0 7 -4 -1 -12
-13 -13 -44 -21 -39 -10 2 4 7 15 10 25 9 24 16 21 11 -5z m99 10 c-6 -7 -9
-21 -8 -31 3 -14 0 -15 -9 -8 -7 6 -15 8 -19 5 -3 -3 -11 4 -17 16 -11 20 -10
21 9 10 17 -9 22 -8 27 5 3 8 11 15 16 15 7 0 7 -4 1 -12z m1197 2 c0 -5 -5
-10 -11 -10 -5 0 -7 5 -4 10 3 6 8 10 11 10 2 0 4 -4 4 -10z m-1790 -20 c0 -5
-5 -10 -11 -10 -5 0 -7 5 -4 10 3 6 8 10 11 10 2 0 4 -4 4 -10z m658 -1 c-2
-6 -8 -10 -13 -10 -5 0 -11 4 -13 10 -2 6 4 11 13 11 9 0 15 -5 13 -11z m402
7 c0 -2 -7 -7 -16 -10 -8 -3 -12 -2 -9 4 6 10 25 14 25 6z m915 -46 c3 -5 1
-10 -4 -10 -6 0 -11 5 -11 10 0 6 2 10 4 10 3 0 8 -4 11 -10z m342 -33 c2 -12
0 -17 -4 -11 -5 6 -15 14 -23 17 -12 4 -11 6 3 6 12 1 16 6 11 14 -4 6 -3 9 1
4 5 -4 10 -18 12 -30z m33 -7 c0 -5 -2 -10 -4 -10 -3 0 -8 5 -11 10 -3 6 -1
10 4 10 6 0 11 -4 11 -10z"/>
<path d="M3985 5152 c-5 -4 -11 -13 -13 -20 -2 -10 2 -10 18 -2 11 6 18 15 15
21 -7 11 -7 11 -20 1z"/>
<path d="M4016 5134 c-3 -9 -2 -12 5 -9 5 4 16 1 24 -5 8 -7 15 -8 15 -4 0 5
-9 15 -19 21 -16 10 -20 9 -25 -3z"/>
<path d="M3940 5120 c-6 -11 -8 -20 -6 -20 3 0 10 9 16 20 6 11 8 20 6 20 -3
0 -10 -9 -16 -20z"/>
<path d="M3847 5117 c-3 -7 3 -13 14 -13 13 0 15 3 7 13 -6 7 -12 13 -13 13
-2 0 -5 -6 -8 -13z"/>
<path d="M3890 5121 c0 -6 4 -13 10 -16 6 -3 7 1 4 9 -7 18 -14 21 -14 7z"/>
<path d="M4190 5040 c0 -6 7 -10 15 -10 8 0 15 2 15 4 0 2 -7 6 -15 10 -8 3
-15 1 -15 -4z"/>
<path d="M4274 4936 c1 -8 5 -18 8 -22 4 -3 5 1 4 10 -1 8 -5 18 -8 22 -4 3
-5 -1 -4 -10z"/>
<path d="M4308 4883 c7 -3 16 -2 19 1 4 3 -2 6 -13 5 -11 0 -14 -3 -6 -6z"/>
<path d="M4353 4751 c0 -11 5 -18 9 -15 4 3 5 11 1 19 -7 21 -12 19 -10 -4z"/>
<path d="M4869 4103 c-13 -16 -12 -17 4 -4 16 13 21 21 13 21 -2 0 -10 -8 -17
-17z"/>
<path d="M2750 5258 c0 -4 4 -8 9 -8 6 0 12 4 15 8 3 5 -1 9 -9 9 -8 0 -15 -4
-15 -9z"/>
<path d="M2939 5218 c0 -2 -3 -14 -5 -28 -4 -23 -4 -23 9 -6 8 11 19 16 25 12
7 -4 12 -5 12 -2 0 6 -39 29 -41 24z"/>
<path d="M2996 5142 c-2 -4 -1 -14 3 -21 6 -10 10 -9 14 3 6 16 -8 32 -17 18z"/>
<path d="M3002 4731 c-11 -7 -11 -9 0 -14 9 -3 15 1 15 9 0 8 -1 14 -1 14 -1
0 -7 -4 -14 -9z"/>
<path d="M5074 4600 c0 -13 4 -16 10 -10 7 7 7 13 0 20 -6 6 -10 3 -10 -10z"/>
<path d="M5055 4399 c-4 -6 -5 -12 -2 -15 2 -3 7 2 10 11 7 17 1 20 -8 4z"/>
<path d="M2995 4380 c3 -5 8 -10 11 -10 2 0 4 5 4 10 0 6 -5 10 -11 10 -5 0
-7 -4 -4 -10z"/>
<path d="M2995 4341 c-3 -5 -2 -12 3 -15 5 -3 9 1 9 9 0 17 -3 19 -12 6z"/>
<path d="M4994 4282 c4 -3 14 -7 22 -8 9 -1 13 0 10 4 -4 3 -14 7 -22 8 -9 1
-13 0 -10 -4z"/>
<path d="M4975 4189 c-4 -6 -5 -12 -2 -15 2 -3 7 2 10 11 7 17 1 20 -8 4z"/>
<path d="M4914 4149 c-4 -7 -3 -9 4 -5 5 3 13 0 15 -6 4 -9 6 -10 6 -1 1 17
-16 25 -25 12z"/>
<path d="M4895 4080 c-3 -5 -1 -10 4 -10 6 0 11 5 11 10 0 6 -2 10 -4 10 -3 0
-8 -4 -11 -10z"/>
<path d="M2990 3926 c0 -2 7 -7 16 -10 8 -3 12 -2 9 4 -6 10 -25 14 -25 6z"/>
<path d="M4647 3903 c-4 -8 9 -53 16 -53 5 0 1 50 -5 56 -3 3 -8 2 -11 -3z"/>
<path d="M2995 3861 c-3 -5 -2 -12 3 -15 5 -3 9 1 9 9 0 17 -3 19 -12 6z"/>
<path d="M4545 3841 c-3 -6 -14 -8 -25 -6 -12 2 -18 0 -14 -6 3 -6 9 -8 12 -5
3 3 10 2 16 -3 6 -5 20 -5 31 0 18 7 18 8 2 8 -10 1 -15 6 -12 11 3 6 4 10 1
10 -3 0 -7 -4 -11 -9z"/>
<path d="M5086 3678 c3 -5 10 -6 15 -3 13 9 11 12 -6 12 -8 0 -12 -4 -9 -9z"/>
<path d="M5113 3655 c0 -8 4 -12 9 -9 5 3 6 10 3 15 -9 13 -12 11 -12 -6z"/>
<path d="M3985 3603 l-17 -28 23 22 c12 12 20 25 17 28 -3 3 -13 -7 -23 -22z"/>
<path d="M2995 3420 c3 -5 8 -10 11 -10 2 0 4 5 4 10 0 6 -5 10 -11 10 -5 0
-7 -4 -4 -10z"/>
<path d="M2995 3381 c-3 -5 -2 -12 3 -15 5 -3 9 1 9 9 0 17 -3 19 -12 6z"/>
<path d="M4222 3317 c10 -8 16 -16 13 -19 -3 -2 2 -5 10 -5 19 0 10 14 -18 27
-20 10 -20 10 -5 -3z"/>
<path d="M5244 3165 c-18 -15 -18 -15 0 -8 15 5 17 3 11 -8 -5 -8 -4 -11 0 -6
8 7 17 37 11 37 -1 0 -11 -7 -22 -15z"/>
<path d="M3849 3133 c-13 -16 -12 -17 4 -4 16 13 21 21 13 21 -2 0 -10 -8 -17
-17z"/>
<path d="M4273 3105 c0 -8 4 -12 9 -9 5 3 6 10 3 15 -9 13 -12 11 -12 -6z"/>
<path d="M5288 3057 c12 -7 20 -15 17 -18 -3 -3 2 -6 10 -6 23 0 18 12 -10 25
-34 16 -46 15 -17 -1z"/>
<path d="M5320 2980 c-9 -6 -10 -10 -3 -10 6 0 15 5 18 10 8 12 4 12 -15 0z"/>
<path d="M5360 2980 c-8 -5 -12 -12 -9 -15 4 -3 12 1 19 10 14 17 11 19 -10 5z"/>
<path d="M4334 2936 c1 -8 5 -18 8 -22 4 -3 5 1 4 10 -1 8 -5 18 -8 22 -4 3
-5 -1 -4 -10z"/>
<path d="M5353 2943 c4 -3 1 -13 -6 -22 -11 -14 -10 -14 5 -2 16 12 16 31 1
31 -4 0 -3 -3 0 -7z"/>
<path d="M5380 2940 c0 -5 5 -10 11 -10 5 0 7 5 4 10 -3 6 -8 10 -11 10 -2 0
-4 -4 -4 -10z"/>
<path d="M3849 2893 c-13 -16 -12 -17 4 -4 16 13 21 21 13 21 -2 0 -10 -8 -17
-17z"/>
<path d="M4353 2885 c0 -8 4 -12 9 -9 5 3 6 10 3 15 -9 13 -12 11 -12 -6z"/>
<path d="M4372 2861 c2 -7 7 -12 11 -12 12 1 9 15 -3 20 -7 2 -11 -2 -8 -8z"/>
<path d="M5436 2852 c-3 -3 -6 -10 -6 -16 0 -6 5 -4 10 4 8 13 10 13 10 -1 0
-9 7 -20 16 -23 26 -10 29 -7 8 8 -10 8 -16 18 -11 22 4 4 7 2 7 -4 0 -7 5
-12 12 -12 9 0 9 3 0 12 -13 13 -38 19 -46 10z"/>
<path d="M6925 2840 c-3 -5 -4 -10 -1 -10 3 0 -3 -9 -14 -20 -11 -11 -23 -19
-26 -17 -3 1 -12 -10 -20 -25 -10 -19 -19 -25 -31 -21 -11 4 -14 3 -9 -5 11
-19 34 -14 41 8 4 11 10 18 15 15 4 -3 10 2 14 10 3 9 12 12 23 9 15 -5 16 -4
3 5 -13 9 -13 12 -1 20 8 5 16 17 17 25 3 18 -2 21 -11 6z"/>
<path d="M4396 2793 c-6 -14 -5 -15 5 -6 7 7 10 15 7 18 -3 3 -9 -2 -12 -12z"/>
<path d="M5470 2780 c0 -5 5 -10 11 -10 5 0 7 5 4 10 -3 6 -8 10 -11 10 -2 0
-4 -4 -4 -10z"/>
<path d="M3002 2765 c4 -4 3 -14 -3 -21 -7 -9 -6 -14 3 -20 7 -4 10 -4 6 1 -4
4 -3 14 3 21 7 9 6 14 -3 20 -7 4 -10 4 -6 -1z"/>
<path d="M6875 2741 c-3 -5 -2 -12 3 -15 5 -3 9 1 9 9 0 17 -3 19 -12 6z"/>
<path d="M5536 2728 c4 -5 13 -7 21 -4 10 4 13 2 10 -8 -4 -11 -1 -13 10 -9
11 4 14 2 9 -5 -5 -8 -2 -10 9 -6 13 6 12 9 -7 22 -24 17 -60 24 -52 10z"/>
<path d="M3866 2718 c3 -5 10 -6 15 -3 13 9 11 12 -6 12 -8 0 -12 -4 -9 -9z"/>
<path d="M6820 2686 c0 -2 7 -7 16 -10 8 -3 12 -2 9 4 -6 10 -25 14 -25 6z"/>
<path d="M6755 2660 c-3 -5 -1 -10 5 -10 6 0 8 -5 4 -12 -4 -7 -3 -8 4 -4 6 4
9 13 5 21 -6 18 -10 19 -18 5z"/>
<path d="M5228 2653 c7 -3 16 -2 19 1 4 3 -2 6 -13 5 -11 0 -14 -3 -6 -6z"/>
<path d="M5697 2616 c-4 -11 -1 -13 10 -9 12 5 14 3 8 -7 -5 -9 -4 -11 4 -6 9
6 9 11 0 22 -14 17 -16 17 -22 0z"/>
<path d="M5737 2596 c-4 -11 -5 -21 -2 -24 3 -3 5 1 5 9 0 11 2 12 9 1 7 -11
9 -10 14 3 4 9 3 14 -2 10 -5 -3 -11 0 -13 7 -3 7 -7 5 -11 -6z"/>
<path d="M4476 2582 c-3 -5 1 -9 9 -9 8 0 12 4 9 9 -3 4 -7 8 -9 8 -2 0 -6 -4
-9 -8z"/>
<path d="M5819 2543 c-10 -11 -10 -14 -1 -9 6 4 12 3 12 -3 0 -6 7 -8 15 -5 9
4 15 0 15 -7 0 -11 2 -11 10 1 5 9 5 19 -2 27 -14 18 -33 16 -49 -4z m45 -2
c4 -5 -3 -7 -14 -4 -23 6 -26 13 -6 13 8 0 17 -4 20 -9z"/>
<path d="M7370 2535 c0 -11 -5 -15 -15 -12 -8 4 -17 1 -21 -5 -5 -7 -11 -6
-19 6 -12 15 -13 15 -19 0 -4 -10 -12 -14 -23 -10 -10 4 -14 4 -11 0 4 -4 -1
-18 -12 -32 -11 -13 -17 -28 -14 -33 3 -5 0 -9 -7 -9 -7 0 -4 -7 7 -15 18 -14
18 -15 0 -9 -16 6 -17 4 -7 -14 8 -14 8 -23 1 -27 -8 -5 -7 -11 1 -21 6 -8 8
-14 3 -14 -5 -1 2 -10 16 -21 14 -12 25 -28 25 -37 0 -8 6 -16 13 -18 7 -1 8
0 2 3 -5 2 -10 10 -10 15 0 6 3 8 7 5 10 -10 34 14 26 27 -3 6 3 2 15 -8 24
-21 29 -32 10 -20 -7 4 -8 3 -4 -4 4 -7 3 -12 -3 -12 -5 0 -12 6 -15 13 -3 6
-3 -1 -1 -17 2 -16 7 -31 11 -35 4 -3 5 2 1 11 -6 17 16 33 41 29 6 -1 12 3
12 9 0 6 -5 8 -12 4 -6 -4 -8 -3 -4 4 3 5 0 13 -6 16 -7 2 -2 3 12 2 21 -3 25
-8 24 -34 0 -28 9 -36 12 -11 1 5 3 11 4 14 7 14 5 31 -5 37 -6 5 -5 8 3 8 10
0 13 27 11 116 l-1 115 -21 -18 c-11 -10 -17 -13 -14 -6 4 6 3 14 -3 18 -5 3
-10 -1 -10 -10z m-115 -175 c-3 -5 -1 -10 5 -10 7 0 10 -5 8 -11 -4 -12 -23
-13 -23 -1 0 4 -4 13 -8 20 -5 8 -3 12 8 12 9 0 13 -4 10 -10z m39 -56 c5 -14
4 -15 -9 -4 -17 14 -19 20 -6 20 5 0 12 -7 15 -16z"/>
<path d="M5965 2510 c-4 -6 -11 -8 -16 -5 -5 4 -9 1 -9 -4 0 -17 27 -13 34 4
6 17 0 20 -9 5z"/>
<path d="M5915 2480 c3 -5 8 -10 11 -10 2 0 4 5 4 10 0 6 -5 10 -11 10 -5 0
-7 -4 -4 -10z"/>
<path d="M6499 2473 c-13 -16 -12 -17 4 -4 9 7 17 15 17 17 0 8 -8 3 -21 -13z"/>
<path d="M6215 2461 c3 -6 14 -9 25 -8 23 2 17 10 -11 14 -11 2 -18 -1 -14 -6z"/>
<path d="M6095 2440 c3 -5 8 -10 11 -10 2 0 4 5 4 10 0 6 -5 10 -11 10 -5 0
-7 -4 -4 -10z"/>
<path d="M6135 2440 c3 -5 8 -10 11 -10 2 0 4 5 4 10 0 6 -5 10 -11 10 -5 0
-7 -4 -4 -10z"/>
<path d="M6270 2439 c0 -5 5 -7 10 -4 6 3 10 8 10 11 0 2 -4 4 -10 4 -5 0 -10
-5 -10 -11z"/>
<path d="M6350 2445 c0 -7 30 -13 34 -7 3 4 -4 9 -15 9 -10 1 -19 0 -19 -2z"/>
<path d="M4580 2382 c0 -5 7 -9 15 -9 8 0 15 4 15 9 0 4 -7 8 -15 8 -8 0 -15
-4 -15 -8z"/>
<path d="M4616 2355 c-3 -8 -1 -15 4 -15 6 0 10 7 10 15 0 8 -2 15 -4 15 -2 0
-6 -7 -10 -15z"/>
<path d="M3215 2310 c-4 -6 -13 -9 -19 -7 -7 3 -13 -1 -13 -8 0 -7 8 -10 19
-7 10 2 18 9 18 14 0 5 5 6 10 3 6 -4 8 -11 5 -16 -3 -5 1 -6 10 -3 9 4 15 7
13 8 -2 1 -10 7 -20 14 -12 9 -18 10 -23 2z"/>
<path d="M3675 2294 c-20 -16 -19 -16 4 -9 13 4 21 3 18 -2 -3 -5 4 -10 16
-10 20 -2 20 -1 4 8 -9 6 -15 14 -12 20 9 14 -8 10 -30 -7z"/>
<path d="M4690 2297 c0 -5 10 -5 22 -1 21 6 22 5 8 -11 -9 -11 -10 -16 -2 -11
7 4 12 2 12 -6 0 -10 3 -9 10 2 5 9 5 19 -1 26 -11 14 -49 15 -49 1z"/>
<path d="M5460 2300 c0 -5 5 -10 11 -10 5 0 7 5 4 10 -3 6 -8 10 -11 10 -2 0
-4 -4 -4 -10z"/>
<path d="M2929 2295 c0 0 -2 -9 -4 -19 -3 -17 -2 -18 13 -3 15 15 17 15 35 -1
19 -16 19 -16 6 5 -10 16 -35 26 -50 18z"/>
<path d="M3156 2285 c4 -8 8 -15 10 -15 2 0 4 7 4 15 0 8 -4 15 -10 15 -5 0
-7 -7 -4 -15z"/>
<path d="M3265 2280 c-3 -6 1 -7 9 -4 18 7 21 14 7 14 -6 0 -13 -4 -16 -10z"/>
<path d="M4754 2269 c-2 -4 10 -5 27 -4 24 2 29 0 24 -14 -5 -12 -3 -13 6 -4
6 6 8 16 5 22 -7 11 -55 11 -62 0z"/>
<path d="M2810 2261 c0 -6 4 -13 10 -16 6 -3 7 1 4 9 -7 18 -14 21 -14 7z"/>
<path d="M2950 2260 c0 -5 5 -10 11 -10 5 0 7 5 4 10 -3 6 -8 10 -11 10 -2 0
-4 -4 -4 -10z"/>
<path d="M3295 2260 c-3 -5 -1 -10 4 -10 6 0 11 5 11 10 0 6 -2 10 -4 10 -3 0
-8 -4 -11 -10z"/>
<path d="M3430 2259 c0 -5 5 -7 10 -4 6 3 10 8 10 11 0 2 -4 4 -10 4 -5 0 -10
-5 -10 -11z"/>
<path d="M3545 2260 c-3 -6 1 -7 9 -4 18 7 21 14 7 14 -6 0 -13 -4 -16 -10z"/>
<path d="M3890 2260 c0 -5 5 -10 11 -10 5 0 7 5 4 10 -3 6 -8 10 -11 10 -2 0
-4 -4 -4 -10z"/>
<path d="M4890 2239 c-7 -11 -9 -23 -7 -26 3 -2 8 5 12 16 6 20 8 20 35 6 16
-8 37 -12 46 -8 11 4 15 3 11 -4 -4 -7 0 -10 10 -8 10 2 21 4 26 4 4 1 7 7 7
15 0 9 -11 13 -34 12 -19 0 -32 -4 -29 -8 2 -5 -1 -8 -6 -8 -6 0 -11 5 -11 12
0 6 -3 8 -6 5 -4 -3 -15 -2 -25 3 -14 8 -21 6 -29 -11z m130 -5 c0 -8 -19 -13
-24 -6 -3 5 1 9 9 9 8 0 15 -2 15 -3z"/>
<path d="M7350 2249 c0 -5 5 -7 10 -4 6 3 10 8 10 11 0 2 -4 4 -10 4 -5 0 -10
-5 -10 -11z"/>
<path d="M5407 2236 c-4 -9 -1 -18 5 -22 7 -4 8 -3 4 4 -9 15 6 16 20 2 7 -7
11 -6 11 5 0 8 -3 13 -5 10 -3 -3 -11 0 -17 5 -9 8 -14 6 -18 -4z"/>
<path d="M5110 2231 c0 -6 4 -13 10 -16 6 -3 7 1 4 9 -7 18 -14 21 -14 7z"/>
<path d="M4835 2220 c27 -12 43 -12 25 0 -8 5 -22 9 -30 9 -10 0 -8 -3 5 -9z"/>
<path d="M4910 2220 c0 -5 5 -10 11 -10 5 0 7 5 4 10 -3 6 -8 10 -11 10 -2 0
-4 -4 -4 -10z"/>
<path d="M5140 2220 c0 -5 9 -8 20 -7 21 1 18 10 -5 13 -8 1 -15 -2 -15 -6z"/>
<path d="M5185 2200 c-3 -6 1 -7 9 -4 18 7 21 14 7 14 -6 0 -13 -4 -16 -10z"/>
</g>
</svg>
